<svg width="81" height="81" viewBox="0 0 81 81" fill="none" xmlns="http://www.w3.org/2000/svg">
<path d="M61.2981 0H18.7836C8.42474 0 0.0272217 8.39752 0.0272217 18.7564V61.2708C0.0272217 71.6297 8.42474 80.0272 18.7836 80.0272H61.2981C71.6569 80.0272 80.0544 71.6297 80.0544 61.2708V18.7564C80.0544 8.39752 71.6569 0 61.2981 0Z" fill="#330000"/>
<path d="M38.707 47.6202H26.3027L23.7684 55.4563C23.7018 55.7564 23.4352 55.9565 23.1351 55.923H16.8661C16.4994 55.923 16.3994 55.723 16.4994 55.3228L27.2365 24.4123C27.3365 24.0791 27.4366 23.7121 27.5697 23.3119C27.7032 22.6117 27.7698 21.8783 27.7698 21.1446C27.7367 20.978 27.8698 20.8111 28.0368 20.778H36.6728C36.9398 20.778 37.073 20.878 37.1064 21.0446L49.2771 55.3897C49.3771 55.7564 49.2771 55.923 48.9439 55.923H41.9746C41.7414 55.9565 41.5079 55.7899 41.4413 55.5563L38.707 47.6202ZM28.2368 40.8513H36.7063C36.5062 40.1511 36.2396 39.3174 35.9394 38.4505C35.6393 37.5502 35.3392 36.5833 35.0391 35.583C34.7056 34.5492 34.4055 33.5489 34.0719 32.5151C33.7387 31.4816 33.4386 30.5144 33.1716 29.5475C32.905 28.6141 32.6715 27.7469 32.4383 26.9466H32.3714C32.0713 28.3805 31.7046 29.8145 31.2378 31.2481C30.7377 32.8486 30.2375 34.5157 29.7039 36.1832C29.2732 37.757 28.7839 39.3141 28.2368 40.8513ZM56.7131 26.6131C55.6127 26.6465 54.5458 26.2129 53.7455 25.4461C52.9787 24.6124 52.5785 23.512 52.6117 22.3785C52.5785 21.2447 53.0118 20.1777 53.8121 19.4106C54.6124 18.6438 55.6796 18.2437 56.78 18.2437C58.0804 18.2437 59.0808 18.6438 59.8141 19.4106C60.5531 20.219 60.9479 21.2837 60.9145 22.3785C60.948 23.512 60.5478 24.6124 59.7475 25.4461C58.9807 26.2464 57.8469 26.68 56.7131 26.6131ZM52.9787 55.5563V29.881C52.9787 29.5475 53.1119 29.414 53.412 29.414H60.0142C60.3143 29.414 60.4478 29.5809 60.4478 29.881V55.5563C60.4478 55.923 60.3143 56.09 60.0142 56.09H53.4789C53.1453 56.09 52.9787 55.8899 52.9787 55.5563Z" fill="#FF9A00"/>
</svg>
