<svg width="31" height="25" viewBox="0 0 31 25" fill="none" xmlns="http://www.w3.org/2000/svg">
<path d="M2.53718 2.92318L4.41195 1.22672C5.03085 0.667182 5.83217 0.351889 6.66642 0.339659C7.50067 0.327429 8.31089 0.619097 8.94593 1.16026L12.0962 3.84369C12.6429 4.30916 13.03 4.93415 13.2033 5.6309C13.3766 6.32766 13.3273 7.06118 13.0624 7.72849L11.7592 11.01C11.5872 11.4553 12.3731 12.5004 14.4549 13.9394C16.5384 15.379 17.7941 15.7435 18.144 15.4283L20.7588 13.0436C21.2888 12.5601 21.9568 12.2546 22.6691 12.1699C23.3815 12.0852 24.1025 12.2255 24.7311 12.5712L28.3426 14.5588C29.072 14.9601 29.6309 15.6126 29.9156 16.3949C30.2002 17.1772 30.1912 18.0363 29.8902 18.8125L28.9618 21.2069C28.662 21.9798 28.1627 22.6594 27.5145 23.1763C26.8664 23.6933 26.0928 24.029 25.2726 24.1494C21.2301 24.7421 16.4405 23.0848 10.881 19.2434C5.31106 15.3973 2.038 11.4775 1.11296 7.44601C0.926713 6.63359 0.960506 5.78619 1.21085 4.99118C1.4612 4.19617 1.91904 3.4823 2.53718 2.92318Z" fill="black"/>
</svg>
