<svg width="72" height="80" viewBox="0 0 72 80" fill="none" xmlns="http://www.w3.org/2000/svg">
<path d="M6.96208 72.0023L0.542786 0H71.0823L64.6566 71.9914L35.7698 79.9999L6.96208 72.0023Z" fill="#1572B6"/>
<path d="M35.8132 73.8787L59.1555 67.407L64.647 5.88672H35.8132V73.8787Z" fill="#33A9DC"/>
<path d="M35.8132 31.9735H47.4987L48.3057 22.9307H35.8132V14.0999H57.957L57.745 16.4693L55.5742 40.8044H35.8132V31.9735Z" fill="white"/>
<path d="M35.8655 54.9075L35.8266 54.919L25.992 52.2636L25.3631 45.2205H16.4997L17.7365 59.0864L35.8253 64.1068L35.8655 64.0953V54.9075Z" fill="#EBEBEB"/>
<path d="M46.7478 40.4304L45.6841 52.2564L35.8349 54.915V64.1028L53.9384 59.0856L54.0712 57.5935L55.6074 40.4304H46.7478Z" fill="white"/>
<path d="M35.8432 14.0999V22.9307H14.5128L14.3359 20.9463L13.9337 16.4693L13.7223 14.0999H35.8432ZM35.8132 31.9748V40.8056H26.1025L25.9256 38.8212L25.5227 34.3442L25.312 31.9748H35.8132Z" fill="#EBEBEB"/>
</svg>
