<svg width="204" height="82" viewBox="0 0 204 82" fill="none" xmlns="http://www.w3.org/2000/svg">
<path d="M15.776 60.912C15.328 60.912 15.104 60.432 15.104 59.472C15.104 58.832 15.232 58.032 15.488 57.072C15.808 56.176 16.192 55.12 16.64 53.904C17.152 53.456 17.408 52.88 17.408 52.176C17.536 52.24 17.6 52.24 17.6 52.176C17.664 52.048 17.696 51.984 17.696 51.984C17.824 51.792 17.888 51.6 17.888 51.408C17.888 51.152 17.92 50.928 17.984 50.736V50.544C17.728 49.904 17.6 49.36 17.6 48.912L17.408 48.816C17.28 48.432 17.184 48.016 17.12 47.568C17.12 47.12 17.152 46.704 17.216 46.32C17.28 45.936 17.248 45.744 17.12 45.744C17.056 45.68 17.024 45.584 17.024 45.456C17.024 45.328 17.024 45.232 17.024 45.168C17.088 45.04 17.152 44.848 17.216 44.592C17.28 44.464 17.376 44.24 17.504 43.92C17.696 43.536 17.792 43.312 17.792 43.248C17.792 43.12 17.76 43.024 17.696 42.96C17.632 42.832 17.6 42.736 17.6 42.672L17.888 42.288V41.616C17.952 41.488 17.984 41.328 17.984 41.136C18.048 41.008 18.144 40.912 18.272 40.848C18.4 40.72 18.496 40.624 18.56 40.56C18.688 40.432 18.784 40.272 18.848 40.08C18.976 39.824 19.072 39.632 19.136 39.504C19.2 39.376 19.264 39.28 19.328 39.216C19.456 39.088 19.552 38.928 19.616 38.736C19.744 38.544 19.84 38.384 19.904 38.256C19.968 38.064 20.064 37.872 20.192 37.68L20.864 37.104C21.12 36.848 21.376 36.72 21.632 36.72C21.888 36.72 22.048 36.976 22.112 37.488L22.016 37.968L20.48 39.6C20.352 39.728 20.288 39.888 20.288 40.08C20.224 40.144 20.16 40.208 20.096 40.272C20.096 40.336 20.064 40.432 20 40.56C20 40.688 19.904 40.848 19.712 41.04L19.424 41.904C19.296 41.904 19.232 41.968 19.232 42.096C19.168 42.16 19.104 42.544 19.04 43.248C19.04 43.888 19.04 44.272 19.04 44.4H19.328C19.328 44.464 19.328 44.56 19.328 44.688C19.392 44.752 19.392 44.848 19.328 44.976V45.552C19.328 45.68 19.296 45.808 19.232 45.936C19.232 45.936 19.2 45.968 19.136 46.032C19.136 46.032 19.136 46.064 19.136 46.128C19.136 46.192 19.168 46.288 19.232 46.416C19.296 46.48 19.328 46.576 19.328 46.704C19.328 46.768 19.296 46.832 19.232 46.896C19.232 46.896 19.232 46.928 19.232 46.992C19.232 47.056 19.264 47.12 19.328 47.184C19.392 47.184 19.424 47.216 19.424 47.28V47.376C19.936 46.416 20.416 45.424 20.864 44.4C21.376 43.376 21.888 42.352 22.4 41.328C22.528 41.072 22.656 41.008 22.784 41.136C22.976 41.2 23.104 41.168 23.168 41.04C23.232 40.976 23.264 40.816 23.264 40.56C23.264 40.368 23.232 40.176 23.168 39.984C23.168 39.792 23.264 39.568 23.456 39.312L24.8 36.912C26.656 33.584 28.512 30.384 30.368 27.312C32.288 24.24 34.08 21.872 35.744 20.208L36.032 20.016L36.32 19.536C36.32 19.536 36.384 19.504 36.512 19.44C36.64 19.376 36.736 19.408 36.8 19.536C36.8 19.6 36.736 19.728 36.608 19.92C36.544 20.112 36.512 20.24 36.512 20.304C36.704 20.624 36.928 20.656 37.184 20.4C37.248 20.272 37.248 19.984 37.184 19.536C37.12 19.088 37.12 18.864 37.184 18.864C37.312 18.8 37.376 18.8 37.376 18.864C37.44 18.928 37.504 18.96 37.568 18.96C37.696 18.96 37.76 18.864 37.76 18.672C37.76 18.48 37.792 18.352 37.856 18.288C38.56 18.032 39.2 17.904 39.776 17.904C40.096 17.904 40.544 18.064 41.12 18.384C41.76 18.704 42.08 19.152 42.08 19.728C42.08 20.048 41.92 20.432 41.6 20.88C41.536 20.944 41.472 21.072 41.408 21.264C41.344 21.392 41.248 21.52 41.12 21.648C41.056 21.712 40.992 21.744 40.928 21.744C40.928 21.68 40.864 21.68 40.736 21.744C40.672 21.808 40.576 21.84 40.448 21.84C40.384 21.776 40.288 21.744 40.16 21.744C40.032 21.744 40 21.84 40.064 22.032C40.192 22.224 40.224 22.352 40.16 22.416C40.096 22.48 40.032 22.48 39.968 22.416C39.904 22.352 39.808 22.384 39.68 22.512C39.616 22.576 39.648 22.64 39.776 22.704C39.968 22.704 40 22.768 39.872 22.896C39.488 23.28 39.008 23.696 38.432 24.144C37.92 24.528 37.408 24.912 36.896 25.296C36.832 25.36 36.768 25.36 36.704 25.296C36.64 25.168 36.576 25.136 36.512 25.2L35.84 26.16C35.2 26.8 34.56 27.472 33.92 28.176C33.28 28.88 32.608 29.68 31.904 30.576C31.712 30.96 31.488 31.312 31.232 31.632C30.976 31.952 30.624 32.08 30.176 32.016C30.176 32.08 30.24 32.176 30.368 32.304C30.496 32.368 30.496 32.496 30.368 32.688C29.28 34.224 28.192 35.824 27.104 37.488C26.016 39.152 24.992 40.88 24.032 42.672C23.584 43.44 23.04 44.432 22.4 45.648L21.536 47.376C21.472 47.568 21.376 47.664 21.248 47.664C21.184 47.6 21.088 47.568 20.96 47.568C21.152 47.952 21.184 48.368 21.056 48.816C21.12 48.816 21.152 48.848 21.152 48.912C22.368 49.744 23.232 50.32 23.744 50.64C24.32 50.96 25.28 51.28 26.624 51.6C27.136 51.728 27.648 51.888 28.16 52.08C28.672 52.208 29.216 52.272 29.792 52.272C29.856 52.272 29.856 52.304 29.792 52.368C29.792 52.432 29.824 52.464 29.888 52.464C30.144 52.464 30.4 52.496 30.656 52.56C30.912 52.56 31.168 52.56 31.424 52.56C31.488 52.56 31.52 52.56 31.52 52.56C31.584 52.496 31.648 52.464 31.712 52.464C31.84 52.464 32.032 52.528 32.288 52.656C32.736 52.656 33.216 52.656 33.728 52.656C34.304 52.656 34.816 52.624 35.264 52.56C35.776 52.496 36.256 52.432 36.704 52.368C37.216 52.24 37.696 52.144 38.144 52.08C39.04 52.016 39.904 51.856 40.736 51.6C41.632 51.28 42.496 50.992 43.328 50.736C44.288 50.416 45.312 50.064 46.4 49.68C47.552 49.232 48.736 48.72 49.952 48.144C50.08 48.08 50.144 48.24 50.144 48.624C50.208 48.944 50.304 49.072 50.432 49.008C50.56 48.944 50.72 48.688 50.912 48.24C51.168 47.792 51.328 47.536 51.392 47.472L52.256 46.32L53.024 45.456C53.152 45.264 53.28 45.008 53.408 44.688C53.536 44.368 53.632 44.112 53.696 43.92C53.888 43.408 54.048 42.864 54.176 42.288C54.304 41.712 54.368 41.104 54.368 40.464C54.368 40.144 54.528 39.984 54.848 39.984C55.168 39.984 55.328 40.144 55.328 40.464C55.328 40.784 55.328 41.136 55.328 41.52C55.328 41.904 55.264 42.256 55.136 42.576C55.136 42.64 55.072 42.672 54.944 42.672C54.88 42.608 54.848 42.608 54.848 42.672C54.784 43.12 54.72 43.6 54.656 44.112C54.592 44.56 54.432 45.008 54.176 45.456L53.6 46.416C54.944 45.712 56.224 44.976 57.44 44.208C58.72 43.376 59.808 42.448 60.704 41.424L61.568 40.464C61.632 40.336 61.728 40.24 61.856 40.176C61.984 40.112 62.08 40.208 62.144 40.464C61.952 40.656 61.92 40.912 62.048 41.232C62.368 41.168 62.56 40.88 62.624 40.368C62.688 39.792 62.784 39.28 62.912 38.832C63.488 38.128 64.064 37.36 64.64 36.528C64.704 36.464 64.8 36.432 64.928 36.432C65.184 36.432 65.408 36.464 65.6 36.528C65.792 36.592 65.984 36.496 66.176 36.24C66.048 35.92 65.92 35.696 65.792 35.568C65.664 35.376 65.696 35.12 65.888 34.8L66.176 34.32C66.496 33.744 66.848 33.328 67.232 33.072C67.616 32.816 67.872 32.272 68 31.44C69.216 29.264 69.824 26.896 69.824 24.336C69.824 21.392 68.896 18.672 67.04 16.176C65.248 13.616 62.496 12.016 58.784 11.376C58.656 11.376 58.272 11.28 57.632 11.088C57.056 10.832 56.704 10.704 56.576 10.704C56.448 10.704 56.32 10.704 56.192 10.704C56.064 10.64 55.936 10.608 55.808 10.608C55.552 10.608 55.36 10.64 55.232 10.704C55.104 10.704 54.816 10.64 54.368 10.512C53.792 10.192 53.056 10 52.16 9.936C51.328 9.808 50.848 9.712 50.72 9.648L48.992 10.032C48.672 10.032 48.352 10.032 48.032 10.032C47.776 9.968 47.52 9.936 47.264 9.936C45.792 9.936 44.576 10.064 43.616 10.32C42.72 10.512 41.92 10.64 41.216 10.704L37.28 11.088C36.896 10.896 36.544 10.96 36.224 11.28H36.128C35.68 11.28 35.232 11.344 34.784 11.472C34.4 11.536 33.984 11.632 33.536 11.76C33.28 11.824 32.992 11.856 32.672 11.856C32.416 11.856 32.128 11.92 31.808 12.048V12.144C31.552 12.208 31.264 12.272 30.944 12.336C30.688 12.336 30.4 12.4 30.08 12.528H29.984C29.728 12.656 29.472 12.784 29.216 12.912C29.024 13.04 28.768 13.072 28.448 13.008C28.192 13.072 27.904 13.136 27.584 13.2C27.328 13.264 27.04 13.36 26.72 13.488H26.528C26.336 13.488 26.144 13.296 25.952 12.912C25.76 12.528 25.664 12.272 25.664 12.144C25.6 12.528 25.504 12.944 25.376 13.392C25.312 13.84 25.088 14.064 24.704 14.064V14.16C24.256 14.224 23.84 14.352 23.456 14.544C23.072 14.736 22.656 14.896 22.208 15.024C21.952 15.088 21.696 15.12 21.44 15.12C21.184 15.056 20.896 15.024 20.576 15.024C20.448 15.024 20.32 15.056 20.192 15.12C20.064 15.12 19.936 15.152 19.808 15.216C19.616 15.28 19.488 15.408 19.424 15.6C19.424 15.792 19.36 15.952 19.232 16.08C18.976 16.336 18.656 16.528 18.272 16.656C17.888 16.784 17.568 16.912 17.312 17.04C17.184 17.104 16.992 17.04 16.736 16.848C16.544 16.656 16.384 16.624 16.256 16.752C16.192 16.816 16.128 16.976 16.064 17.232C16.064 17.488 16 17.648 15.872 17.712H15.776L13.472 18.768C13.152 18.896 12.768 19.088 12.32 19.344C11.872 19.6 11.488 19.76 11.168 19.824C11.104 19.824 11.072 19.696 11.072 19.44C11.072 19.184 11.008 19.12 10.88 19.248C10.56 19.376 10.208 19.728 9.824 20.304C9.504 20.816 9.184 21.168 8.864 21.36C8.544 21.616 8.224 21.744 7.904 21.744C7.584 21.744 7.296 21.872 7.04 22.128C6.848 22.256 6.656 22.544 6.464 22.992C6.336 23.376 6.176 23.664 5.984 23.856L4.64 25.68C4.512 25.808 4.384 25.936 4.256 26.064C4.128 26.192 4.064 26.352 4.064 26.544C3.68 27.184 3.488 27.92 3.488 28.752C3.488 30.16 3.968 31.184 4.928 31.824C5.952 32.4 7.072 32.848 8.288 33.168H8.384C8.832 33.488 9.248 33.616 9.632 33.552C9.888 33.424 10.112 33.36 10.304 33.36C10.56 33.36 10.784 33.488 10.976 33.744L12.32 34.032C13.024 34.224 13.376 34.416 13.376 34.608C13.376 34.736 13.216 34.864 12.896 34.992C12.64 35.056 12.352 35.088 12.032 35.088C10.944 35.088 9.6 34.864 8 34.416C6.464 33.968 5.088 33.264 3.872 32.304C2.656 31.28 1.952 30.032 1.76 28.56C1.76 28.496 1.664 28.336 1.472 28.08C1.344 27.824 1.248 27.6 1.184 27.408C1.12 27.088 1.056 26.8 0.992 26.544C0.992 26.224 0.992 25.936 0.992 25.68C0.992 23.632 1.792 21.744 3.392 20.016C3.712 19.696 4 19.472 4.256 19.344C4.512 19.216 4.832 19.024 5.216 18.768C5.536 18.512 5.696 18.32 5.696 18.192C5.696 18 5.888 17.776 6.272 17.52C6.784 17.136 7.456 16.752 8.288 16.368C9.12 15.92 9.792 15.568 10.304 15.312V15.216H10.496C10.752 15.216 11.008 15.088 11.264 14.832C12.416 14.256 13.632 13.744 14.912 13.296C16.256 12.784 17.6 12.304 18.944 11.856C19.328 11.664 19.68 11.568 20 11.568C20.32 11.568 20.576 11.664 20.768 11.856C20.768 11.728 20.768 11.632 20.768 11.568C20.768 11.44 20.8 11.344 20.864 11.28V11.184C22.336 10.736 23.808 10.288 25.28 9.84C26.752 9.328 28.192 9.072 29.6 9.072H29.696C30.08 9.072 30.368 9.008 30.56 8.88L31.136 8.784H31.232C31.616 8.912 31.968 8.848 32.288 8.592C33.888 8.272 35.424 8.08 36.896 8.016C38.368 7.952 39.616 7.888 40.64 7.824C40.832 7.888 41.024 7.92 41.216 7.92C41.408 7.856 41.568 7.824 41.696 7.824L42.656 7.728C42.848 7.728 43.04 7.76 43.232 7.824C43.488 7.824 43.712 7.792 43.904 7.728L49.28 7.632H49.376C49.568 7.632 49.728 7.728 49.856 7.92C50.048 8.048 50.24 7.984 50.432 7.728C50.944 7.728 51.712 7.824 52.736 8.016C53.824 8.208 54.912 8.4 56 8.592C57.088 8.72 57.888 8.848 58.4 8.976C59.36 9.168 60.704 9.616 62.432 10.32C64.224 10.96 66.016 11.952 67.808 13.296C69.6 14.576 71.04 16.304 72.128 18.48C73.28 20.592 73.696 23.248 73.376 26.448C73.312 27.6 73.056 28.688 72.608 29.712C72.16 30.736 71.68 31.792 71.168 32.88L70.208 34.992C70.144 35.056 70.048 35.152 69.92 35.28C69.792 35.344 69.664 35.44 69.536 35.568C69.472 35.76 69.376 35.92 69.248 36.048C69.12 36.112 68.992 36.24 68.864 36.432C68.608 36.816 68.32 37.2 68 37.584C67.68 37.904 67.36 38.288 67.04 38.736L66.848 39.024C65.952 40.432 64.832 41.712 63.488 42.864C62.144 43.952 60.8 44.944 59.456 45.84V45.936C59.328 46 59.168 46.096 58.976 46.224C58.848 46.288 58.72 46.384 58.592 46.512L58.496 46.608H58.4C58.272 46.672 58.112 46.736 57.92 46.8C57.728 46.864 57.568 47.024 57.44 47.28C57.184 47.472 56.928 47.568 56.672 47.568C55.84 48.016 55.072 48.4 54.368 48.72C53.664 48.976 53.056 49.232 52.544 49.488C52.544 49.616 52.448 49.808 52.256 50.064C52.064 50.32 51.904 50.512 51.776 50.64C50.688 51.536 49.952 52.272 49.568 52.848C49.184 53.424 48.704 53.872 48.128 54.192C48.064 54.256 47.968 54.288 47.84 54.288C47.584 54.288 47.392 54.384 47.264 54.576C47.136 54.768 47.008 54.96 46.88 55.152C46.56 55.472 45.92 55.792 44.96 56.112C44.064 56.432 43.392 56.752 42.944 57.072C42.752 57.136 42.528 57.2 42.272 57.264C42.08 57.392 41.984 57.456 41.984 57.456H41.504C41.44 57.456 41.312 57.52 41.12 57.648C40.928 57.84 40.768 57.968 40.64 58.032C40.512 58.096 40.384 58.128 40.256 58.128C40.128 58.128 40.032 58.192 39.968 58.32C39.648 58.32 39.296 58.384 38.912 58.512C38.848 58.512 38.528 58.512 37.952 58.512C37.376 58.576 37.024 58.64 36.896 58.704C36.832 58.768 36.608 58.864 36.224 58.992C35.84 59.12 35.584 59.184 35.456 59.184C35.392 59.184 35.328 59.152 35.264 59.088C35.2 59.088 35.104 59.12 34.976 59.184C34.912 59.312 34.816 59.376 34.688 59.376C34.624 59.376 34.496 59.344 34.304 59.28C34.176 59.28 34.048 59.28 33.92 59.28C33.856 59.216 33.728 59.248 33.536 59.376C33.408 59.504 33.28 59.568 33.152 59.568C33.088 59.568 33.024 59.536 32.96 59.472C32.96 59.472 32.928 59.472 32.864 59.472C32.736 59.472 32.608 59.504 32.48 59.568C32.352 59.632 32.224 59.664 32.096 59.664C31.648 59.664 31.232 59.632 30.848 59.568C30.464 59.504 30.08 59.472 29.696 59.472C29.632 59.472 29.44 59.376 29.12 59.184C28.864 58.992 28.704 58.896 28.64 58.896C28.192 58.896 27.744 58.864 27.296 58.8C26.912 58.8 26.528 58.768 26.144 58.704C26.08 58.704 26.016 58.64 25.952 58.512C25.952 58.448 25.888 58.416 25.76 58.416H25.568C25.504 58.416 25.344 58.352 25.088 58.224C24.896 58.096 24.768 58 24.704 57.936L24.608 57.84C24.352 57.776 24.192 57.68 24.128 57.552C24.128 57.424 24.064 57.36 23.936 57.36C23.872 57.36 23.84 57.36 23.84 57.36C23.84 57.424 23.808 57.456 23.744 57.456C23.616 57.456 23.552 57.392 23.552 57.264C23.36 57.136 23.04 56.976 22.592 56.784C22.208 56.592 21.952 56.368 21.824 56.112C21.568 56.048 21.408 55.984 21.344 55.92C21.344 55.856 21.28 55.728 21.152 55.536L20.768 55.344L19.808 54.48C19.808 54.288 19.776 54.192 19.712 54.192L19.424 54C19.424 53.744 19.328 53.616 19.136 53.616C19.008 53.232 18.944 53.04 18.944 53.04C18.368 54.32 17.856 55.568 17.408 56.784C17.024 58 16.672 59.12 16.352 60.144C16.224 60.656 16.032 60.912 15.776 60.912ZM32.576 58.032C32.704 58.032 32.8 58 32.864 57.936C32.992 57.872 33.088 57.808 33.152 57.744H33.536C33.984 57.488 34.208 57.488 34.208 57.744C34.208 58 34.368 58 34.688 57.744H35.168C35.232 57.552 35.328 57.456 35.456 57.456C35.648 57.456 35.776 57.424 35.84 57.36C35.968 57.36 36.032 57.296 36.032 57.168C36.096 57.104 36.224 57.072 36.416 57.072C36.48 57.072 36.576 57.136 36.704 57.264C36.96 57.264 37.472 57.136 38.24 56.88C39.072 56.624 39.52 56.496 39.584 56.496C39.648 56.56 39.744 56.496 39.872 56.304C40.064 56.112 40.192 56.048 40.256 56.112C40.256 56.048 40.352 55.984 40.544 55.92C40.736 55.92 40.864 55.888 40.928 55.824C41.312 55.632 41.632 55.536 41.888 55.536C41.952 55.472 42.112 55.344 42.368 55.152C42.688 55.024 42.848 54.928 42.848 54.864C42.976 54.736 43.168 54.64 43.424 54.576C43.68 54.512 43.84 54.448 43.904 54.384C44.096 54.384 44.736 54.064 45.824 53.424C46.976 52.72 48.032 51.888 48.992 50.928C47.904 51.312 46.848 51.632 45.824 51.888C44.864 52.08 44.352 52.176 44.288 52.176C44.16 52.304 44.064 52.368 44 52.368C43.744 52.24 43.616 52.176 43.616 52.176L43.52 52.272C43.456 52.272 43.392 52.304 43.328 52.368C43.264 52.432 43.136 52.464 42.944 52.464C42.88 52.4 42.688 52.464 42.368 52.656C42.112 52.784 41.952 52.848 41.888 52.848C41.824 52.848 41.728 52.88 41.6 52.944C41.536 52.944 41.44 52.912 41.312 52.848C41.056 53.104 40.384 53.296 39.296 53.424C38.272 53.488 37.6 53.52 37.28 53.52H37.184C37.12 53.456 37.024 53.456 36.896 53.52C36.832 53.52 36.736 53.52 36.608 53.52C36.608 53.584 36.576 53.648 36.512 53.712H35.936C35.68 53.712 35.424 53.744 35.168 53.808C34.976 53.872 34.752 53.904 34.496 53.904L34.4 53.808C34.336 53.808 34.24 53.84 34.112 53.904C33.984 53.968 33.888 54 33.824 54C33.76 54 33.696 53.968 33.632 53.904C33.632 53.776 33.568 53.712 33.44 53.712C33.376 53.712 33.28 53.776 33.152 53.904C33.088 53.968 33.024 53.968 32.96 53.904H32.576C32.384 53.904 32.288 53.904 32.288 53.904C32.224 53.904 32.16 53.936 32.096 54C32.096 54 32.064 54 32 54C32 54 31.936 53.936 31.808 53.808C31.744 53.808 31.616 53.872 31.424 54C31.296 54.064 31.168 54.064 31.04 54H30.848C30.72 53.872 30.656 53.808 30.656 53.808C30.592 53.808 30.56 53.84 30.56 53.904H29.696C29.312 53.904 28.928 53.776 28.544 53.52C28.16 53.264 27.808 53.136 27.488 53.136C27.424 53.136 27.36 53.168 27.296 53.232C27.296 53.232 27.264 53.232 27.2 53.232C27.136 53.232 27.072 53.232 27.008 53.232C27.008 53.168 26.976 53.136 26.912 53.136C26.912 53.136 26.88 53.136 26.816 53.136C26.816 53.136 26.784 53.168 26.72 53.232C26.72 53.168 26.688 53.136 26.624 53.136C26.624 53.072 26.624 53.04 26.624 53.04L25.76 52.848C25.76 52.656 25.696 52.56 25.568 52.56C25.504 52.368 25.088 52.176 24.32 51.984C23.552 51.792 23.104 51.664 22.976 51.6C22.912 51.6 22.784 51.536 22.592 51.408C22.464 51.28 22.4 51.248 22.4 51.312H22.304C22.112 51.312 21.856 51.184 21.536 50.928C21.28 50.608 21.024 50.416 20.768 50.352C20.576 50.16 20.48 49.968 20.48 49.776H20.384L20.288 49.872L20.096 50.448C20.096 50.512 20.128 50.64 20.192 50.832C20.256 51.024 20.256 51.184 20.192 51.312C20.32 51.44 20.384 51.6 20.384 51.792C20.384 51.92 20.448 52.016 20.576 52.08C20.64 52.272 20.704 52.464 20.768 52.656C20.896 52.848 20.992 53.04 21.056 53.232C21.056 53.296 21.216 53.424 21.536 53.616C21.856 53.744 22.016 53.872 22.016 54C22.08 54.064 22.144 54.128 22.208 54.192C22.336 54.256 22.4 54.352 22.4 54.48C22.464 54.544 22.528 54.64 22.592 54.768C22.656 54.896 22.688 55.024 22.688 55.152C22.816 55.152 22.912 55.184 22.976 55.248C23.04 55.376 23.2 55.568 23.456 55.824C23.712 56.144 23.904 56.336 24.032 56.4C24.096 56.4 24.128 56.368 24.128 56.304C24.128 56.304 24.16 56.304 24.224 56.304C24.352 56.368 24.512 56.496 24.704 56.688C24.896 56.944 25.024 57.072 25.088 57.072C25.216 57.072 25.28 57.072 25.28 57.072C25.792 57.136 26.304 57.2 26.816 57.264C27.328 57.392 27.84 57.488 28.352 57.552C28.416 57.552 28.512 57.584 28.64 57.648C28.768 57.776 28.928 57.84 29.12 57.84C29.632 57.904 30.24 57.936 30.944 57.936C31.712 57.936 32.224 57.936 32.48 57.936L32.576 58.032ZM77.4208 54.192C75.8208 54.192 74.4128 53.744 73.1968 52.848C71.9808 51.952 71.3727 50.416 71.3727 48.24C71.3727 47.408 71.4688 46.576 71.6608 45.744C71.8528 44.848 72.0768 43.984 72.3328 43.152C72.4608 42.32 72.6528 41.584 72.9088 40.944C72.9728 40.688 73.0048 40.56 73.0048 40.56C73.0688 40.496 73.2288 40.4 73.4848 40.272L74.2528 39.12V38.736C74.1888 38.736 74.1568 38.736 74.1568 38.736C74.1568 38.672 74.1568 38.64 74.1568 38.64C74.1568 38.448 74.3168 38.224 74.6367 37.968C74.9568 37.712 75.1168 37.584 75.1168 37.584C75.1808 37.264 75.2768 37.104 75.4048 37.104C75.5328 37.104 75.6928 37.008 75.8848 36.816H76.9408V36.624C76.9408 36.304 76.7808 36.176 76.4608 36.24C76.2048 36.24 76.0768 36.208 76.0768 36.144C76.0768 36.08 76.1728 35.952 76.3648 35.76C76.6208 35.504 76.7808 35.344 76.8448 35.28C77.0368 35.024 77.1968 34.8 77.3248 34.608C77.4528 34.352 77.6448 34.16 77.9008 34.032C79.0528 32.624 79.7568 31.728 80.0128 31.344C80.3328 30.96 80.6528 30.672 80.9728 30.48C81.1008 30.48 81.1968 30.544 81.2608 30.672C81.3888 30.736 81.3888 30.832 81.2608 30.96C81.3888 31.152 81.4848 31.184 81.5488 31.056C81.6768 30.928 81.7408 30.864 81.7408 30.864L82.1248 30.672C81.9968 30.544 81.9328 30.384 81.9328 30.192C81.9328 29.872 81.9968 29.616 82.1248 29.424C82.2528 29.168 82.4768 28.912 82.7968 28.656C83.1808 28.4 83.3728 28.24 83.3728 28.176C83.7568 28.048 84.0448 27.92 84.2368 27.792C84.4928 27.664 84.7488 27.6 85.0048 27.6C85.4528 27.6 85.9008 27.76 86.3488 28.08C87.5648 28.72 88.5888 29.36 89.4208 30C90.2528 30.64 90.6688 31.536 90.6688 32.688C90.6688 33.904 90.1568 34.96 89.1328 35.856C88.1728 36.688 86.9888 37.392 85.5807 37.968C84.1727 38.544 82.7648 39.024 81.3568 39.408C80.0128 39.728 78.9568 39.984 78.1888 40.176C77.7408 40.24 77.5168 40.432 77.5168 40.752C77.5808 41.008 77.5488 41.296 77.4208 41.616L76.7488 42.672L76.1728 44.016L75.6928 44.88C75.2448 45.264 75.0848 45.552 75.2128 45.744C75.3408 45.936 75.5648 45.904 75.8848 45.648C75.9488 45.712 75.9808 45.808 75.9808 45.936C75.9808 46.192 75.9168 46.512 75.7888 46.896C75.6608 47.216 75.5648 47.472 75.5008 47.664C75.4368 47.92 75.4368 48.048 75.5008 48.048C75.6288 47.984 75.6928 48.112 75.6928 48.432L75.7888 49.776C76.1728 50.992 77.0368 51.696 78.3808 51.888C78.5088 51.888 78.6368 51.92 78.7648 51.984C78.9568 51.984 79.1168 51.984 79.2448 51.984C80.3968 51.984 81.0048 51.888 81.0688 51.696C81.1968 51.504 81.3568 51.376 81.5488 51.312C82.1248 51.184 82.6048 51.056 82.9888 50.928C83.4368 50.8 83.8848 50.608 84.3328 50.352C85.1008 50.032 85.8368 49.616 86.5408 49.104C87.2448 48.592 87.9808 48.08 88.7488 47.568L89.7088 46.896C89.7728 46.768 89.7728 46.672 89.7088 46.608C89.6448 46.544 89.6448 46.48 89.7088 46.416C89.8368 46.352 89.9328 46.352 89.9968 46.416C90.1248 46.416 90.2208 46.384 90.2848 46.32C90.4128 46.256 90.5408 46.16 90.6688 46.032C90.7968 45.84 90.9248 45.68 91.0528 45.552C91.1808 45.424 91.2448 45.296 91.2448 45.168C91.3088 45.04 91.4048 44.912 91.5328 44.784C92.0448 44.272 92.5568 43.728 93.0688 43.152C93.6448 42.576 94.1248 42.064 94.5088 41.616C94.9568 40.976 95.3088 40.656 95.5648 40.656C95.6928 40.656 95.7568 40.72 95.7568 40.848C95.7568 41.168 95.5328 41.648 95.0848 42.288C93.9968 43.888 92.7488 45.456 91.3408 46.992C89.9328 48.464 88.3968 49.808 86.7328 51.024C85.5168 51.856 84.0768 52.592 82.4128 53.232C80.7488 53.872 79.0848 54.192 77.4208 54.192ZM78.8608 38.736C79.8208 38.672 81.0688 38.416 82.6048 37.968C84.1408 37.456 85.4208 36.784 86.4448 35.952C87.5328 35.056 88.0768 34.064 88.0768 32.976C88.0768 31.952 87.5328 30.96 86.4448 30C85.5488 30.64 84.5568 31.568 83.4688 32.784C82.4448 33.936 81.5168 35.088 80.6848 36.24C79.8528 37.328 79.2448 38.16 78.8608 38.736ZM102.542 54.288C100.174 54.288 98.382 53.872 97.166 53.04C95.95 52.208 95.118 51.216 94.67 50.064C94.222 48.912 94.094 47.6 94.286 46.128L94.478 45.84C94.606 45.648 94.702 45.392 94.766 45.072C94.83 44.752 94.894 44.56 94.958 44.496L95.726 44.688C95.854 44.752 95.95 44.656 96.014 44.4C96.078 44.144 96.046 44.048 95.918 44.112C95.534 44.176 95.342 44.24 95.342 44.304C95.342 44.368 95.278 44.24 95.15 43.92L95.438 43.728L95.342 43.632C95.342 43.504 95.406 43.44 95.534 43.44L95.342 43.152C95.342 43.152 95.598 43.184 96.11 43.248C96.686 43.248 96.91 43.184 96.782 43.056C96.846 43.056 96.814 43.024 96.686 42.96C96.558 42.832 96.494 42.736 96.494 42.672C96.43 42.736 96.398 42.736 96.398 42.672C96.398 42.544 96.174 42.544 95.726 42.672C95.534 42.736 95.438 42.704 95.438 42.576C95.438 42.448 95.438 42.384 95.438 42.384C95.63 42.32 95.822 42.256 96.014 42.192C96.206 42.064 96.334 41.872 96.398 41.616C96.462 40.976 96.526 40.624 96.59 40.56C96.654 40.496 96.718 40.4 96.782 40.272C96.846 40.144 96.942 39.984 97.07 39.792C97.198 39.536 97.294 39.408 97.358 39.408C97.294 39.344 97.262 39.248 97.262 39.12C97.262 38.8 97.486 38.672 97.934 38.736C98.446 38.8 98.606 38.608 98.414 38.16C98.222 37.904 98.318 37.776 98.702 37.776L98.606 37.68C98.862 37.552 99.022 37.488 99.086 37.488C99.214 37.424 99.15 37.296 98.894 37.104L99.278 36.24C99.342 36.112 99.47 35.92 99.662 35.664C99.918 35.344 100.302 35.024 100.814 34.704C100.814 34.704 100.782 34.736 100.718 34.8C100.718 34.8 100.718 34.832 100.718 34.896H100.814C101.006 34.896 101.358 34.704 101.87 34.32C101.806 34.256 101.678 34.224 101.486 34.224C101.358 34.16 101.262 34.096 101.198 34.032C101.134 33.84 101.454 33.424 102.158 32.784C102.862 32.144 103.63 31.536 104.462 30.96C105.294 30.32 105.806 29.936 105.998 29.808C106.958 29.296 108.014 28.88 109.166 28.56C110.382 28.176 111.438 28.08 112.334 28.272C112.526 28.336 112.814 28.592 113.198 29.04C113.646 29.488 113.966 29.616 114.158 29.424C114.734 28.912 115.406 28.4 116.174 27.888C116.942 27.376 117.39 27.152 117.518 27.216C117.838 27.28 118.158 27.408 118.478 27.6C118.798 27.728 118.958 28.112 118.958 28.752C118.958 29.2 118.926 29.584 118.862 29.904C118.798 30.288 118.638 30.608 118.382 30.864C118.126 31.12 117.87 31.408 117.614 31.728C117.358 32.112 116.878 32.72 116.174 33.552C115.534 34.32 115.054 34.8 114.734 34.992C114.542 35.056 114.318 35.248 114.062 35.568C113.87 35.824 113.614 36.08 113.294 36.336C113.038 36.528 112.718 36.688 112.334 36.816C112.014 36.88 111.79 36.944 111.662 37.008C111.534 37.072 111.31 37.104 110.99 37.104C110.734 37.04 110.67 36.912 110.798 36.72C110.862 36.656 110.862 36.592 110.798 36.528C110.798 36.4 110.798 36.304 110.798 36.24C110.862 36.112 110.958 36.016 111.086 35.952C111.214 35.888 111.31 35.792 111.374 35.664C111.438 35.6 111.598 35.376 111.854 34.992C112.174 34.608 112.334 34.384 112.334 34.32C112.27 34.256 112.27 34.192 112.334 34.128C112.398 34 112.43 33.904 112.43 33.84C112.494 33.776 112.526 33.68 112.526 33.552C112.526 33.424 112.59 33.36 112.718 33.36C112.974 33.296 113.102 33.2 113.102 33.072C113.102 32.56 113.134 32.08 113.198 31.632C113.326 31.184 113.294 30.8 113.102 30.48C112.846 29.968 112.366 29.712 111.662 29.712C110.702 29.712 109.582 30.128 108.302 30.96C107.022 31.728 106.158 32.368 105.71 32.88C103.662 35.184 101.998 37.776 100.718 40.656C99.438 43.536 98.926 46.096 99.182 48.336C99.31 49.424 99.758 50.32 100.526 51.024C101.294 51.728 102.158 52.08 103.118 52.08H104.75C104.942 52.08 105.134 52.08 105.326 52.08C105.582 52.016 105.838 51.952 106.094 51.888C106.478 51.76 106.766 51.696 106.958 51.696C107.278 51.376 107.47 51.376 107.534 51.696C108.046 51.44 108.27 51.344 108.206 51.408C108.142 51.472 108.238 51.472 108.494 51.408C109.774 51.088 111.022 50.544 112.238 49.776C113.454 49.008 114.574 48.24 115.598 47.472C115.79 47.344 116.11 47.152 116.558 46.896C117.006 46.64 117.326 46.448 117.518 46.32C117.646 46.128 117.742 45.968 117.806 45.84C117.934 45.648 118.094 45.52 118.286 45.456C118.414 45.264 118.574 45.072 118.766 44.88C118.958 44.624 119.086 44.464 119.15 44.4C119.47 44.272 119.566 44.176 119.438 44.112C119.31 43.984 119.47 43.824 119.918 43.632C120.046 43.568 120.174 43.536 120.302 43.536C120.43 43.536 120.494 43.6 120.494 43.728C120.494 43.856 120.302 44.208 119.918 44.784C119.662 45.232 119.182 45.808 118.478 46.512L117.518 47.472L116.366 48.048C116.238 48.176 116.174 48.304 116.174 48.432C116.174 48.496 116.11 48.592 115.982 48.72C114.19 50.32 112.142 51.664 109.838 52.752C107.598 53.776 105.166 54.288 102.542 54.288ZM120.772 57.456C120.644 57.072 120.58 56.688 120.58 56.304C120.58 56.112 120.612 55.92 120.676 55.728C120.676 55.6 120.708 55.44 120.772 55.248C120.836 55.056 120.996 54.544 121.252 53.712C121.572 52.88 121.86 52.016 122.116 51.12C122.436 50.224 122.66 49.712 122.788 49.584C122.788 49.584 122.98 49.104 123.364 48.144C123.812 47.12 124.292 46.064 124.804 44.976C125.316 43.824 125.7 43.088 125.956 42.768C126.276 42.064 126.756 41.2 127.396 40.176C128.1 39.088 128.772 37.808 129.412 36.336V35.856C129.412 35.664 129.412 35.504 129.412 35.376C129.476 35.184 129.54 34.992 129.604 34.8C129.86 34.288 130.084 33.936 130.276 33.744C130.532 33.552 130.788 33.2 131.044 32.688C131.044 32.56 131.044 32.432 131.044 32.304C131.108 32.176 131.172 32.048 131.236 31.92C131.108 32.048 131.076 31.952 131.14 31.632C131.012 31.632 131.14 31.312 131.524 30.672C131.78 30.096 131.972 29.776 132.1 29.712H132.196C132.452 29.328 132.676 29.008 132.868 28.752C133.06 28.432 133.124 28.24 133.06 28.176V27.984C133.06 27.536 133.188 27.12 133.444 26.736C133.764 26.352 134.052 25.936 134.308 25.488C134.5 25.232 134.66 25.104 134.788 25.104C134.916 25.104 134.98 25.136 134.98 25.2C135.044 25.2 135.108 25.2 135.172 25.2C135.364 25.2 135.46 25.04 135.46 24.72C135.46 24.592 135.428 24.432 135.364 24.24C135.364 24.048 135.332 23.824 135.268 23.568C135.332 23.248 135.588 22.992 136.036 22.8L136.324 22.704C136.644 21.36 137.028 20.464 137.476 20.016C137.604 19.888 137.732 19.76 137.86 19.632C137.988 19.504 138.116 19.376 138.244 19.248C139.012 18.416 139.588 17.52 139.972 16.56C140.1 16.304 140.26 16.112 140.452 15.984C140.708 15.792 140.932 15.568 141.124 15.312C141.252 15.12 141.284 14.928 141.22 14.736C141.22 14.48 141.252 14.256 141.316 14.064C141.636 13.552 141.86 13.264 141.988 13.2C142.116 13.136 142.244 13.072 142.372 13.008C142.564 12.88 142.884 12.592 143.332 12.144C143.524 11.824 143.716 11.504 143.908 11.184C144.164 10.864 144.42 10.544 144.676 10.224C145.06 9.776 145.476 9.456 145.924 9.264C146.372 9.072 146.82 8.784 147.268 8.4C147.396 8.272 147.46 8.08 147.46 7.824C147.46 7.504 147.524 7.28 147.652 7.152C149.892 5.36 152.292 3.856 154.852 2.64C157.476 1.424 159.492 0.815998 160.9 0.815998C161.412 0.815998 161.892 0.847998 162.34 0.911997C162.852 0.975996 163.332 1.072 163.78 1.2H163.972C164.292 1.2 164.612 1.264 164.932 1.392C165.252 1.52 165.54 1.648 165.796 1.776C166.052 1.776 166.372 1.84 166.756 1.96799C167.076 2.096 167.268 2.288 167.332 2.544C167.396 2.8 167.332 2.992 167.14 3.12C167.076 3.184 166.98 3.184 166.852 3.12C166.724 3.056 166.596 3.024 166.468 3.024C166.34 3.024 166.212 2.96 166.084 2.832C165.956 2.704 165.828 2.608 165.7 2.544C165.444 2.544 165.156 2.576 164.836 2.64C164.58 2.704 164.292 2.736 163.972 2.736H163.684C163.236 2.736 162.916 2.672 162.724 2.544C162.596 2.352 162.276 2.32 161.764 2.448C161.7 2.448 161.508 2.48 161.188 2.544C160.868 2.608 160.644 2.64 160.516 2.64C158.212 3.216 156.196 4.176 154.468 5.52C152.74 6.8 151.204 8.24 149.86 9.84C148.58 11.44 147.332 12.976 146.116 14.448C145.54 15.6 144.964 16.528 144.388 17.232C144.324 17.296 144.26 17.264 144.196 17.136C144.132 17.008 144.068 17.008 144.004 17.136C143.812 17.328 143.652 17.648 143.524 18.096C143.46 18.48 143.332 18.8 143.14 19.056C143.076 19.12 143.012 19.088 142.948 18.96C142.884 18.832 142.788 18.832 142.66 18.96C142.596 19.024 142.5 19.28 142.372 19.728C142.308 20.112 142.212 20.368 142.084 20.496C141.316 21.52 140.484 22.512 139.588 23.472C138.692 24.432 137.796 25.552 136.9 26.832C135.62 28.816 134.404 30.768 133.252 32.688C132.1 34.608 130.884 36.72 129.604 39.024C129.156 39.792 128.804 40.496 128.548 41.136C128.356 41.712 128.132 42.256 127.876 42.768C127.556 43.536 127.396 44.08 127.396 44.4C127.396 44.848 127.684 44.944 128.26 44.688C128.516 44.56 128.868 44.24 129.316 43.728C129.828 43.152 130.18 42.832 130.372 42.768C130.436 42.704 130.532 42.672 130.66 42.672C130.916 42.672 131.044 42.768 131.044 42.96C131.044 43.216 130.884 43.44 130.564 43.632C130.308 43.76 130.148 43.92 130.084 44.112C130.02 44.304 129.86 44.56 129.604 44.88C129.412 45.008 129.284 45.2 129.22 45.456C129.156 45.712 129.092 45.872 129.028 45.936C128.964 46.064 128.932 46.256 128.932 46.512C128.932 46.704 128.772 46.928 128.452 47.184C128.388 47.248 128.324 47.376 128.26 47.568C128.26 47.76 128.228 47.92 128.164 48.048C128.1 48.24 127.972 48.4 127.78 48.528C127.652 48.592 127.588 48.656 127.588 48.72C127.524 48.976 127.396 49.136 127.204 49.2C127.076 49.2 126.948 49.264 126.82 49.392C126.756 49.456 126.756 49.552 126.82 49.68C126.884 49.808 126.852 49.936 126.724 50.064L125.764 52.08C125.7 52.208 125.604 52.336 125.476 52.464C125.412 52.592 125.316 52.688 125.188 52.752C125.124 52.752 124.996 52.72 124.804 52.656C124.676 52.592 124.612 52.624 124.612 52.752C124.548 52.816 124.548 53.008 124.612 53.328C124.74 53.584 124.708 53.776 124.516 53.904C124.324 54.032 124.132 54.288 123.94 54.672C123.812 55.12 123.684 55.408 123.556 55.536C123.3 55.792 123.076 55.952 122.884 56.016C122.692 56.144 122.5 56.336 122.308 56.592C122.244 56.656 122.02 56.912 121.636 57.36C121.252 57.872 120.964 57.904 120.772 57.456ZM148.9 55.536C148.26 55.536 147.78 55.408 147.46 55.152C147.332 55.088 147.172 54.992 146.98 54.864C146.852 54.736 146.724 54.672 146.596 54.672H146.404C146.34 54.672 146.244 54.576 146.116 54.384C145.988 54.256 145.86 54.16 145.732 54.096C145.668 54.096 145.444 53.968 145.06 53.712C144.676 53.392 144.42 53.2 144.292 53.136C144.228 53.072 144.164 53.008 144.1 52.944C144.1 52.816 144.068 52.752 144.004 52.752H143.812C143.812 52.752 143.812 52.688 143.812 52.56C143.62 52.304 143.428 52.08 143.236 51.888C143.044 51.696 142.916 51.472 142.852 51.216L142.66 51.312C142.596 51.184 142.5 51.056 142.372 50.928C142.308 50.736 142.212 50.608 142.084 50.544C142.084 50.416 141.892 50.128 141.508 49.68C141.188 49.232 140.964 48.976 140.836 48.912C140.836 48.72 140.772 48.56 140.644 48.432C140.516 48.24 140.388 48.08 140.26 47.952C140.26 47.76 140.26 47.664 140.26 47.664C140.132 47.344 139.94 47.088 139.684 46.896C139.492 46.64 139.332 46.384 139.204 46.128C139.076 45.872 138.98 45.648 138.916 45.456C138.916 45.264 138.916 45.136 138.916 45.072C138.788 44.88 138.5 44.56 138.052 44.112L137.956 44.016C137.956 43.888 137.924 43.728 137.86 43.536C137.796 43.344 137.732 43.184 137.668 43.056C137.476 42.928 137.316 42.704 137.188 42.384C137.124 42.064 137.028 41.808 136.9 41.616V41.232L136.132 39.984C136.068 39.856 136.036 39.728 136.036 39.6C136.036 39.472 135.972 39.344 135.844 39.216C135.524 39.152 135.492 38.896 135.748 38.448C135.556 38 135.364 37.776 135.172 37.776C135.044 37.776 134.916 37.872 134.788 38.064C134.66 38.192 134.564 38.288 134.5 38.352C134.436 38.352 134.34 38.512 134.212 38.832C134.084 39.088 133.988 39.248 133.924 39.312C133.86 39.696 133.668 39.984 133.348 40.176C133.092 40.368 132.9 40.624 132.772 40.944C132.324 41.904 131.876 42.32 131.428 42.192C131.364 42.192 131.332 42.128 131.332 42C131.332 41.936 131.332 41.84 131.332 41.712C131.332 41.52 131.396 41.296 131.524 41.04L131.908 40.272C132.036 40.144 132.164 40.016 132.292 39.888C132.484 39.696 132.644 39.536 132.772 39.408C133.348 38.704 133.796 38.096 134.116 37.584C134.436 37.008 135.108 36.4 136.132 35.76C136.452 35.568 136.676 35.376 136.804 35.184C137.188 35.12 137.476 34.832 137.668 34.32L137.86 34.416C137.924 34.288 137.988 34.224 138.052 34.224C138.18 34.224 138.276 34.192 138.34 34.128C139.236 33.424 140.036 32.848 140.74 32.4C141.508 31.888 142.34 31.312 143.236 30.672C143.236 30.672 143.428 30.48 143.812 30.096C144.196 29.712 144.452 29.488 144.58 29.424C144.644 29.36 144.804 29.328 145.06 29.328C145.188 29.264 145.38 29.136 145.636 28.944C145.892 28.752 146.052 28.624 146.116 28.56C146.244 28.56 146.372 28.528 146.5 28.464C146.628 28.4 146.724 28.368 146.788 28.368C147.236 27.792 147.812 27.44 148.516 27.312C148.516 27.248 148.516 27.216 148.516 27.216C148.58 27.152 148.612 27.088 148.612 27.024H148.804C148.868 27.024 148.932 26.992 148.996 26.928C149.06 26.864 149.124 26.832 149.188 26.832C149.316 26.768 149.476 26.704 149.668 26.64C149.924 26.512 150.052 26.384 150.052 26.256C150.052 26.192 150.116 26.224 150.244 26.352C150.308 26.352 150.5 26.32 150.82 26.256C151.204 26.192 151.428 26.128 151.492 26.064L151.588 26.16L152.164 25.776L153.124 25.584C153.316 25.52 153.572 25.456 153.892 25.392C154.276 25.328 154.564 25.328 154.756 25.392C154.756 25.392 154.788 25.424 154.852 25.488C155.236 25.488 155.332 25.776 155.14 26.352C154.948 26.928 154.66 27.472 154.276 27.984C153.892 28.496 153.604 28.72 153.412 28.656C153.412 28.656 153.38 28.624 153.316 28.56C153.252 28.56 153.06 28.624 152.74 28.752C152.42 28.816 152.196 28.848 152.068 28.848C152.004 28.784 151.94 28.752 151.876 28.752C151.812 28.816 151.716 28.944 151.588 29.136C151.524 29.264 151.396 29.392 151.204 29.52C151.14 29.584 150.66 29.68 149.764 29.808C148.868 29.936 148.356 29.968 148.228 29.904H148.132C147.94 29.904 147.364 30.128 146.404 30.576C145.508 30.96 144.932 31.216 144.676 31.344C144.548 31.408 144.42 31.44 144.292 31.44C144.164 31.376 144.036 31.408 143.908 31.536C143.716 31.6 143.524 31.696 143.332 31.824C143.204 31.952 143.044 32.08 142.852 32.208C142.404 32.592 141.604 33.072 140.452 33.648C139.364 34.224 138.628 34.864 138.244 35.568C138.052 35.824 138.02 36.048 138.148 36.24C138.34 36.432 138.404 36.56 138.34 36.624L142.372 43.824C142.5 43.952 142.628 44.144 142.756 44.4C142.948 44.656 143.076 44.848 143.14 44.976C143.268 45.04 143.364 45.136 143.428 45.264C143.492 45.392 143.588 45.52 143.716 45.648C143.844 46.032 144.1 46.384 144.484 46.704C144.868 47.024 145.028 47.344 144.964 47.664L145.444 48.048C145.508 48.048 145.54 48.112 145.54 48.24C145.604 48.304 145.7 48.336 145.828 48.336C145.828 48.4 145.924 48.592 146.116 48.912C146.372 49.232 146.532 49.456 146.596 49.584L146.692 49.488C146.884 49.808 147.108 50.128 147.364 50.448C147.684 50.704 147.972 50.96 148.228 51.216L148.612 51.408C148.74 51.472 148.868 51.6 148.996 51.792C149.124 51.92 149.22 51.984 149.284 51.984H149.38C149.636 51.984 149.796 52.048 149.86 52.176C149.988 52.24 150.148 52.272 150.34 52.272C150.404 52.336 150.436 52.4 150.436 52.464C150.5 52.464 150.564 52.496 150.628 52.56C150.692 52.56 150.724 52.56 150.724 52.56C150.788 52.496 150.852 52.464 150.916 52.464C151.044 52.464 151.076 52.496 151.012 52.56C151.012 52.56 151.044 52.56 151.108 52.56H151.3C151.684 52.56 152.164 52.496 152.74 52.368C153.38 52.176 153.732 51.952 153.796 51.696C153.924 51.696 154.02 51.6 154.084 51.408C154.34 51.28 154.468 51.184 154.468 51.12C154.468 50.992 154.5 50.864 154.564 50.736L154.852 50.544C154.98 50.224 155.044 49.744 155.044 49.104C155.108 48.464 155.172 48.016 155.236 47.76C155.364 47.248 155.396 46.864 155.332 46.608C155.268 46.352 155.268 46 155.332 45.552C155.332 45.424 155.3 45.328 155.236 45.264C155.172 45.136 155.14 45.04 155.14 44.976V44.784C155.14 44.528 155.076 44.304 154.948 44.112C154.884 43.856 154.788 43.6 154.66 43.344L154.372 42.384C154.372 42.32 154.34 42.288 154.276 42.288C154.276 42.224 154.276 42.192 154.276 42.192C154.276 41.872 154.404 41.712 154.66 41.712C154.852 41.712 155.108 41.968 155.428 42.48L156.1 43.728C156.356 43.792 156.452 43.856 156.388 43.92C156.324 43.984 156.324 44.144 156.388 44.4L156.58 44.784V44.88C156.58 45.072 156.676 45.328 156.868 45.648C157.06 45.904 157.188 46.096 157.252 46.224C157.316 46.48 157.38 46.736 157.444 46.992C157.572 47.248 157.572 47.536 157.444 47.856L157.348 48.72C157.284 48.784 157.22 48.88 157.156 49.008C157.092 49.136 156.964 49.232 156.772 49.296C156.644 49.36 156.484 49.328 156.292 49.2C156.1 49.072 156.004 49.072 156.004 49.2C155.876 49.328 155.876 49.456 156.004 49.584C155.876 49.712 155.78 49.872 155.716 50.064C155.716 50.256 155.684 50.448 155.62 50.64C155.62 50.704 155.588 50.768 155.524 50.832C155.46 50.832 155.428 50.864 155.428 50.928C155.364 50.992 155.332 51.088 155.332 51.216C155.332 51.28 155.3 51.344 155.236 51.408C155.172 51.536 155.012 51.856 154.756 52.368C154.5 52.88 154.244 53.392 153.988 53.904C153.732 54.352 153.572 54.608 153.508 54.672L152.548 55.056C152.484 55.056 152.452 54.992 152.452 54.864C152.324 54.928 152.196 54.992 152.068 55.056C151.94 55.184 151.812 55.28 151.684 55.344H151.108C151.044 55.344 150.948 55.376 150.82 55.44C150.756 55.504 150.66 55.504 150.532 55.44H150.436L150.244 55.536C150.116 55.408 150.052 55.344 150.052 55.344C149.988 55.28 149.828 55.28 149.572 55.344C149.38 55.472 149.156 55.536 148.9 55.536ZM148.221 81.264C147.261 81.264 146.429 81.168 145.725 80.976C145.277 80.848 144.829 80.688 144.381 80.496C143.933 80.304 143.453 80.08 142.941 79.824L142.749 79.728C142.493 79.6 142.205 79.408 141.885 79.152C141.565 78.96 141.245 78.8 140.925 78.672C140.669 78.608 140.317 78.416 139.869 78.096C139.549 77.84 139.357 77.584 139.293 77.328C139.165 77.072 139.197 76.912 139.389 76.848C139.453 76.848 139.549 76.88 139.677 76.944C139.805 77.072 139.933 77.168 140.061 77.232C140.189 77.296 140.349 77.392 140.541 77.52C140.669 77.648 140.797 77.744 140.925 77.808C141.245 77.936 141.533 78.032 141.789 78.096C141.981 78.224 142.205 78.352 142.461 78.48C143.037 78.736 143.453 78.896 143.709 78.96C143.965 79.024 144.349 79.088 144.861 79.152L146.109 79.248C149.501 79.504 152.349 78.864 154.653 77.328C156.893 75.792 158.782 74.16 160.318 72.432C160.51 71.92 160.702 71.44 160.894 70.992C161.15 70.608 161.406 70.288 161.662 70.032C161.726 69.968 161.79 70 161.854 70.128C161.982 70.32 162.078 70.384 162.142 70.32C162.27 70.128 162.334 69.808 162.334 69.36C162.398 68.976 162.526 68.688 162.718 68.496C162.782 68.432 162.846 68.496 162.91 68.688C163.038 68.88 163.134 68.944 163.198 68.88C163.326 68.752 163.39 68.496 163.39 68.112C163.454 67.728 163.518 67.504 163.582 67.44C164.222 66.544 164.798 65.712 165.31 64.944C165.822 64.176 166.398 63.248 167.038 62.16C167.614 61.264 168.286 60.112 169.054 58.704C169.886 57.36 170.622 56.112 171.262 54.96C171.902 53.936 172.382 52.848 172.702 51.696L172.99 50.64C173.31 49.424 173.95 47.76 174.91 45.648C175.934 43.472 177.118 41.136 178.462 38.64C179.87 36.08 181.278 33.648 182.686 31.344C183.006 30.96 183.262 30.64 183.454 30.384C183.646 30.128 183.934 29.808 184.318 29.424C184.446 29.36 184.702 29.072 185.086 28.56C185.47 28.048 185.854 27.536 186.238 27.024C186.686 26.448 186.942 26.128 187.006 26.064C188.862 24.528 190.91 23.312 193.15 22.416C195.454 21.456 197.246 20.976 198.526 20.976C199.038 20.976 199.39 20.976 199.582 20.976C199.838 20.912 200.158 20.912 200.542 20.976L201.214 21.072C201.47 21.136 201.694 21.232 201.886 21.36C202.142 21.424 202.398 21.488 202.654 21.552C202.782 21.616 202.942 21.712 203.134 21.84C203.326 21.968 203.486 22.064 203.614 22.128C203.87 22.32 203.998 22.544 203.998 22.8C203.998 22.992 203.934 23.12 203.806 23.184C203.742 23.248 203.646 23.248 203.518 23.184C203.454 23.056 203.358 22.992 203.23 22.992C203.102 22.992 202.974 22.96 202.846 22.896C202.718 22.832 202.59 22.768 202.462 22.704C202.206 22.704 201.982 22.672 201.79 22.608C201.598 22.544 201.406 22.48 201.214 22.416C200.958 22.352 200.734 22.32 200.542 22.32C200.35 22.32 200.19 22.32 200.062 22.32C199.806 22.32 199.55 22.352 199.294 22.416C199.23 22.416 199.038 22.448 198.718 22.512C198.462 22.512 198.27 22.544 198.142 22.608C195.198 23.312 192.798 24.656 190.942 26.64C189.086 28.624 187.422 30.64 185.95 32.688C185.694 33.008 185.342 33.424 184.894 33.936C184.51 34.384 184.254 34.672 184.126 34.8C184.062 34.928 183.774 35.376 183.262 36.144C182.75 36.848 182.238 37.584 181.726 38.352C181.278 39.056 181.022 39.44 180.958 39.504C180.894 39.568 180.766 39.6 180.574 39.6C180.446 39.6 180.35 39.632 180.286 39.696L177.982 44.304L177.022 46.128L175.774 48.624C175.134 49.84 174.558 51.088 174.046 52.368C173.534 53.584 173.118 54.768 172.798 55.92C172.606 56.368 172.51 56.88 172.51 57.456C172.51 58.032 172.35 58.384 172.03 58.512C171.838 58.576 171.678 58.48 171.549 58.224C171.422 57.968 171.358 58.192 171.358 58.896C171.486 58.96 171.486 59.088 171.358 59.28C171.294 59.472 171.262 59.632 171.262 59.76C171.326 59.888 171.358 60.08 171.358 60.336C171.358 60.656 171.23 60.944 170.974 61.2C170.782 61.456 170.622 61.744 170.494 62.064C170.366 62.32 170.206 62.384 170.014 62.256C169.822 62.192 169.662 62.16 169.534 62.16L169.438 62.352C169.438 62.544 169.534 62.992 169.726 63.696C169.726 64.08 169.534 64.272 169.15 64.272H168.862C168.798 65.616 168.542 66.416 168.094 66.672L167.422 67.152L167.23 67.536C166.846 68.304 166.558 68.656 166.366 68.592L166.078 69.36C166.014 69.552 165.854 69.712 165.598 69.84C165.406 69.968 165.246 70.128 165.118 70.32C165.118 70.384 165.086 70.416 165.022 70.416C165.022 70.416 165.022 70.448 165.022 70.512C165.022 71.28 164.67 72.048 163.966 72.816C163.326 73.584 162.654 74.256 161.95 74.832C161.822 75.088 161.662 75.344 161.47 75.6C161.278 75.856 161.054 76.08 160.798 76.272C160.478 76.592 160.094 76.784 159.646 76.848C159.262 76.912 158.878 77.104 158.494 77.424C158.366 77.488 158.302 77.648 158.302 77.904C158.366 78.224 158.334 78.416 158.206 78.48C156.797 79.376 155.165 80.048 153.309 80.496C151.453 81.008 149.757 81.264 148.221 81.264ZM164.254 53.904C163.422 53.904 162.718 53.424 162.142 52.464C161.566 51.44 161.406 50.672 161.662 50.16C161.726 50.032 161.79 49.872 161.854 49.68C161.982 49.424 162.078 49.264 162.142 49.2C162.27 49.072 162.334 49.04 162.334 49.104C162.398 49.104 162.462 49.072 162.526 49.008C162.59 48.88 162.558 48.784 162.43 48.72C162.366 48.592 162.366 48.496 162.43 48.432L163.582 44.112C163.582 44.048 163.614 43.984 163.678 43.92C163.742 43.856 163.773 43.792 163.773 43.728L163.966 42C163.966 41.936 164.03 41.936 164.158 42C164.286 42 164.382 41.968 164.446 41.904C164.574 41.584 164.542 41.424 164.35 41.424C164.158 41.424 164.062 41.392 164.062 41.328C164.126 40.816 164.222 40.464 164.35 40.272C164.478 40.08 164.574 39.76 164.638 39.312L164.926 37.68C164.926 37.744 164.958 38 165.022 38.448C165.086 38.832 165.246 39.024 165.502 39.024C165.822 39.024 165.918 38.96 165.79 38.832C165.662 38.704 165.566 38.544 165.502 38.352C165.438 38.032 165.502 37.776 165.694 37.584C165.758 37.52 165.886 37.648 166.078 37.968C166.27 38.224 166.366 38.352 166.366 38.352C166.43 38.224 166.462 38.064 166.462 37.872C166.462 37.68 166.398 37.552 166.27 37.488C166.014 37.296 165.726 37.168 165.406 37.104C165.15 36.976 165.022 36.848 165.022 36.72C165.022 36.528 165.054 36.336 165.118 36.144C165.118 36.08 165.15 36.016 165.214 35.952C165.278 35.888 165.31 35.824 165.31 35.76C165.31 35.632 165.246 35.568 165.118 35.568C165.054 35.568 165.022 35.536 165.022 35.472V34.512C165.022 34.32 165.022 34.128 165.022 33.936C165.022 33.68 164.958 33.424 164.83 33.168C164.638 32.72 164.35 32.336 163.966 32.016C163.582 31.696 163.102 31.536 162.526 31.536H162.43L162.238 31.728H162.046C161.598 32.048 161.086 32.368 160.51 32.688C159.998 32.944 159.55 33.136 159.166 33.264L158.974 33.36C158.91 33.424 158.814 33.456 158.686 33.456C158.43 33.456 158.238 33.328 158.11 33.072C158.046 32.816 158.142 32.656 158.398 32.592C158.91 32.272 159.454 32.016 160.03 31.824C160.606 31.632 161.118 31.344 161.566 30.96C161.694 30.64 162.014 30.384 162.526 30.192C162.654 30.064 162.75 30.032 162.814 30.096C162.878 30.16 162.942 30.192 163.006 30.192C163.326 30.192 163.518 30.096 163.582 29.904C163.71 29.648 163.806 29.584 163.87 29.712H164.83C166.238 29.712 167.326 30.288 168.094 31.44C168.862 32.528 169.214 34 169.15 35.856C169.15 35.92 169.054 36.016 168.862 36.144C168.734 36.208 168.67 36.304 168.67 36.432C168.67 36.496 168.734 36.528 168.862 36.528C169.054 36.464 169.15 36.496 169.15 36.624V37.008C169.15 37.584 169.118 37.904 169.054 37.968C168.926 39.376 168.606 40.848 168.094 42.384C167.646 43.856 167.166 45.296 166.654 46.704C166.462 46.704 166.334 46.8 166.27 46.992C166.206 47.184 166.11 47.28 165.982 47.28C165.79 47.28 165.598 47.216 165.406 47.088C165.278 46.896 165.214 46.896 165.214 47.088C165.214 47.344 165.342 47.536 165.598 47.664C165.854 47.728 166.014 47.792 166.078 47.856C166.142 47.92 166.27 47.952 166.462 47.952C166.654 47.952 166.846 47.888 167.038 47.76C167.23 47.632 167.422 47.504 167.614 47.376C167.934 47.12 168.35 46.768 168.862 46.32C169.438 45.808 169.95 45.36 170.398 44.976C170.846 44.528 171.07 44.304 171.07 44.304C170.942 44.176 171.038 44.048 171.358 43.92L171.838 43.344C171.902 43.024 172.094 42.672 172.414 42.288C172.734 41.904 173.022 41.68 173.278 41.616L173.47 41.232C173.534 41.232 173.598 41.264 173.662 41.328C173.726 41.328 173.79 41.296 173.854 41.232C173.918 41.232 173.918 41.168 173.854 41.04C173.854 40.912 173.886 40.848 173.95 40.848L174.43 40.176C174.558 39.792 174.686 39.568 174.814 39.504C174.75 39.312 174.814 39.184 175.006 39.12C175.134 39.12 175.262 39.152 175.39 39.216C175.582 39.216 175.678 39.088 175.678 38.832C175.678 38.704 175.71 38.544 175.774 38.352C175.838 38.096 175.998 38 176.254 38.064L176.35 37.872C176.35 37.808 176.478 37.712 176.734 37.584C176.99 37.392 177.15 37.264 177.214 37.2L177.694 36.528C177.886 36.208 178.078 36.048 178.27 36.048C178.462 35.984 178.59 35.952 178.654 35.952C178.718 35.952 178.75 36.016 178.75 36.144C178.75 36.592 178.526 37.04 178.078 37.488L177.31 38.352C177.246 38.416 177.182 38.448 177.118 38.448C177.054 38.448 176.99 38.512 176.926 38.64C176.862 38.704 176.798 38.8 176.734 38.928C176.67 39.056 176.606 39.184 176.542 39.312L175.774 40.176L170.59 46.32C170.014 46.96 169.63 47.376 169.438 47.568C169.31 47.76 169.118 48.048 168.862 48.432C168.798 48.496 168.702 48.496 168.574 48.432C168.446 48.368 168.318 48.4 168.19 48.528L168.094 49.104L167.614 49.584C167.55 49.648 167.582 49.68 167.71 49.68C167.902 49.68 167.966 49.712 167.902 49.776L166.558 52.08C165.854 53.296 165.086 53.904 164.254 53.904Z" fill="#06004E"/>
</svg>
