<svg width="218" height="193" viewBox="0 0 218 193" fill="none" xmlns="http://www.w3.org/2000/svg">
<rect width="218" height="193" fill="white"/>
<path d="M24.776 119.912C24.328 119.912 24.104 119.432 24.104 118.472C24.104 117.832 24.232 117.032 24.488 116.072C24.808 115.176 25.192 114.12 25.64 112.904C26.152 112.456 26.408 111.88 26.408 111.176C26.536 111.24 26.6 111.24 26.6 111.176C26.664 111.048 26.696 110.984 26.696 110.984C26.824 110.792 26.888 110.6 26.888 110.408C26.888 110.152 26.92 109.928 26.984 109.736V109.544C26.728 108.904 26.6 108.36 26.6 107.912L26.408 107.816C26.28 107.432 26.184 107.016 26.12 106.568C26.12 106.12 26.152 105.704 26.216 105.32C26.28 104.936 26.248 104.744 26.12 104.744C26.056 104.68 26.024 104.584 26.024 104.456C26.024 104.328 26.024 104.232 26.024 104.168C26.088 104.04 26.152 103.848 26.216 103.592C26.28 103.464 26.376 103.24 26.504 102.92C26.696 102.536 26.792 102.312 26.792 102.248C26.792 102.12 26.76 102.024 26.696 101.96C26.632 101.832 26.6 101.736 26.6 101.672L26.888 101.288V100.616C26.952 100.488 26.984 100.328 26.984 100.136C27.048 100.008 27.144 99.912 27.272 99.848C27.4 99.72 27.496 99.624 27.56 99.56C27.688 99.432 27.784 99.272 27.848 99.08C27.976 98.824 28.072 98.632 28.136 98.504C28.2 98.376 28.264 98.28 28.328 98.216C28.456 98.088 28.552 97.928 28.616 97.736C28.744 97.544 28.84 97.384 28.904 97.256C28.968 97.064 29.064 96.872 29.192 96.68L29.864 96.104C30.12 95.848 30.376 95.72 30.632 95.72C30.888 95.72 31.048 95.976 31.112 96.488L31.016 96.968L29.48 98.6C29.352 98.728 29.288 98.888 29.288 99.08C29.224 99.144 29.16 99.208 29.096 99.272C29.096 99.336 29.064 99.432 29 99.56C29 99.688 28.904 99.848 28.712 100.04L28.424 100.904C28.296 100.904 28.232 100.968 28.232 101.096C28.168 101.16 28.104 101.544 28.04 102.248C28.04 102.888 28.04 103.272 28.04 103.4H28.328C28.328 103.464 28.328 103.56 28.328 103.688C28.392 103.752 28.392 103.848 28.328 103.976V104.552C28.328 104.68 28.296 104.808 28.232 104.936C28.232 104.936 28.2 104.968 28.136 105.032C28.136 105.032 28.136 105.064 28.136 105.128C28.136 105.192 28.168 105.288 28.232 105.416C28.296 105.48 28.328 105.576 28.328 105.704C28.328 105.768 28.296 105.832 28.232 105.896C28.232 105.896 28.232 105.928 28.232 105.992C28.232 106.056 28.264 106.12 28.328 106.184C28.392 106.184 28.424 106.216 28.424 106.28V106.376C28.936 105.416 29.416 104.424 29.864 103.4C30.376 102.376 30.888 101.352 31.4 100.328C31.528 100.072 31.656 100.008 31.784 100.136C31.976 100.2 32.104 100.168 32.168 100.04C32.232 99.976 32.264 99.816 32.264 99.56C32.264 99.368 32.232 99.176 32.168 98.984C32.168 98.792 32.264 98.568 32.456 98.312L33.8 95.912C35.656 92.584 37.512 89.384 39.368 86.312C41.288 83.24 43.08 80.872 44.744 79.208L45.032 79.016L45.32 78.536C45.32 78.536 45.384 78.504 45.512 78.44C45.64 78.376 45.736 78.408 45.8 78.536C45.8 78.6 45.736 78.728 45.608 78.92C45.544 79.112 45.512 79.24 45.512 79.304C45.704 79.624 45.928 79.656 46.184 79.4C46.248 79.272 46.248 78.984 46.184 78.536C46.12 78.088 46.12 77.864 46.184 77.864C46.312 77.8 46.376 77.8 46.376 77.864C46.44 77.928 46.504 77.96 46.568 77.96C46.696 77.96 46.76 77.864 46.76 77.672C46.76 77.48 46.792 77.352 46.856 77.288C47.56 77.032 48.2 76.904 48.776 76.904C49.096 76.904 49.544 77.064 50.12 77.384C50.76 77.704 51.08 78.152 51.08 78.728C51.08 79.048 50.92 79.432 50.6 79.88C50.536 79.944 50.472 80.072 50.408 80.264C50.344 80.392 50.248 80.52 50.12 80.648C50.056 80.712 49.992 80.744 49.928 80.744C49.928 80.68 49.864 80.68 49.736 80.744C49.672 80.808 49.576 80.84 49.448 80.84C49.384 80.776 49.288 80.744 49.16 80.744C49.032 80.744 49 80.84 49.064 81.032C49.192 81.224 49.224 81.352 49.16 81.416C49.096 81.48 49.032 81.48 48.968 81.416C48.904 81.352 48.808 81.384 48.68 81.512C48.616 81.576 48.648 81.64 48.776 81.704C48.968 81.704 49 81.768 48.872 81.896C48.488 82.28 48.008 82.696 47.432 83.144C46.92 83.528 46.408 83.912 45.896 84.296C45.832 84.36 45.768 84.36 45.704 84.296C45.64 84.168 45.576 84.136 45.512 84.2L44.84 85.16C44.2 85.8 43.56 86.472 42.92 87.176C42.28 87.88 41.608 88.68 40.904 89.576C40.712 89.96 40.488 90.312 40.232 90.632C39.976 90.952 39.624 91.08 39.176 91.016C39.176 91.08 39.24 91.176 39.368 91.304C39.496 91.368 39.496 91.496 39.368 91.688C38.28 93.224 37.192 94.824 36.104 96.488C35.016 98.152 33.992 99.88 33.032 101.672C32.584 102.44 32.04 103.432 31.4 104.648L30.536 106.376C30.472 106.568 30.376 106.664 30.248 106.664C30.184 106.6 30.088 106.568 29.96 106.568C30.152 106.952 30.184 107.368 30.056 107.816C30.12 107.816 30.152 107.848 30.152 107.912C31.368 108.744 32.232 109.32 32.744 109.64C33.32 109.96 34.28 110.28 35.624 110.6C36.136 110.728 36.648 110.888 37.16 111.08C37.672 111.208 38.216 111.272 38.792 111.272C38.856 111.272 38.856 111.304 38.792 111.368C38.792 111.432 38.824 111.464 38.888 111.464C39.144 111.464 39.4 111.496 39.656 111.56C39.912 111.56 40.168 111.56 40.424 111.56C40.488 111.56 40.52 111.56 40.52 111.56C40.584 111.496 40.648 111.464 40.712 111.464C40.84 111.464 41.032 111.528 41.288 111.656C41.736 111.656 42.216 111.656 42.728 111.656C43.304 111.656 43.816 111.624 44.264 111.56C44.776 111.496 45.256 111.432 45.704 111.368C46.216 111.24 46.696 111.144 47.144 111.08C48.04 111.016 48.904 110.856 49.736 110.6C50.632 110.28 51.496 109.992 52.328 109.736C53.288 109.416 54.312 109.064 55.4 108.68C56.552 108.232 57.736 107.72 58.952 107.144C59.08 107.08 59.144 107.24 59.144 107.624C59.208 107.944 59.304 108.072 59.432 108.008C59.56 107.944 59.72 107.688 59.912 107.24C60.168 106.792 60.328 106.536 60.392 106.472L61.256 105.32L62.024 104.456C62.152 104.264 62.28 104.008 62.408 103.688C62.536 103.368 62.632 103.112 62.696 102.92C62.888 102.408 63.048 101.864 63.176 101.288C63.304 100.712 63.368 100.104 63.368 99.464C63.368 99.144 63.528 98.984 63.848 98.984C64.168 98.984 64.328 99.144 64.328 99.464C64.328 99.784 64.328 100.136 64.328 100.52C64.328 100.904 64.264 101.256 64.136 101.576C64.136 101.64 64.072 101.672 63.944 101.672C63.88 101.608 63.848 101.608 63.848 101.672C63.784 102.12 63.72 102.6 63.656 103.112C63.592 103.56 63.432 104.008 63.176 104.456L62.6 105.416C63.944 104.712 65.224 103.976 66.44 103.208C67.72 102.376 68.808 101.448 69.704 100.424L70.568 99.464C70.632 99.336 70.728 99.24 70.856 99.176C70.984 99.112 71.08 99.208 71.144 99.464C70.952 99.656 70.92 99.912 71.048 100.232C71.368 100.168 71.56 99.88 71.624 99.368C71.688 98.792 71.784 98.28 71.912 97.832C72.488 97.128 73.064 96.36 73.64 95.528C73.704 95.464 73.8 95.432 73.928 95.432C74.184 95.432 74.408 95.464 74.6 95.528C74.792 95.592 74.984 95.496 75.176 95.24C75.048 94.92 74.92 94.696 74.792 94.568C74.664 94.376 74.696 94.12 74.888 93.8L75.176 93.32C75.496 92.744 75.848 92.328 76.232 92.072C76.616 91.816 76.872 91.272 77 90.44C78.216 88.264 78.824 85.896 78.824 83.336C78.824 80.392 77.896 77.672 76.04 75.176C74.248 72.616 71.496 71.016 67.784 70.376C67.656 70.376 67.272 70.28 66.632 70.088C66.056 69.832 65.704 69.704 65.576 69.704C65.448 69.704 65.32 69.704 65.192 69.704C65.064 69.64 64.936 69.608 64.808 69.608C64.552 69.608 64.36 69.64 64.232 69.704C64.104 69.704 63.816 69.64 63.368 69.512C62.792 69.192 62.056 69 61.16 68.936C60.328 68.808 59.848 68.712 59.72 68.648L57.992 69.032C57.672 69.032 57.352 69.032 57.032 69.032C56.776 68.968 56.52 68.936 56.264 68.936C54.792 68.936 53.576 69.064 52.616 69.32C51.72 69.512 50.92 69.64 50.216 69.704L46.28 70.088C45.896 69.896 45.544 69.96 45.224 70.28H45.128C44.68 70.28 44.232 70.344 43.784 70.472C43.4 70.536 42.984 70.632 42.536 70.76C42.28 70.824 41.992 70.856 41.672 70.856C41.416 70.856 41.128 70.92 40.808 71.048V71.144C40.552 71.208 40.264 71.272 39.944 71.336C39.688 71.336 39.4 71.4 39.08 71.528H38.984C38.728 71.656 38.472 71.784 38.216 71.912C38.024 72.04 37.768 72.072 37.448 72.008C37.192 72.072 36.904 72.136 36.584 72.2C36.328 72.264 36.04 72.36 35.72 72.488H35.528C35.336 72.488 35.144 72.296 34.952 71.912C34.76 71.528 34.664 71.272 34.664 71.144C34.6 71.528 34.504 71.944 34.376 72.392C34.312 72.84 34.088 73.064 33.704 73.064V73.16C33.256 73.224 32.84 73.352 32.456 73.544C32.072 73.736 31.656 73.896 31.208 74.024C30.952 74.088 30.696 74.12 30.44 74.12C30.184 74.056 29.896 74.024 29.576 74.024C29.448 74.024 29.32 74.056 29.192 74.12C29.064 74.12 28.936 74.152 28.808 74.216C28.616 74.28 28.488 74.408 28.424 74.6C28.424 74.792 28.36 74.952 28.232 75.08C27.976 75.336 27.656 75.528 27.272 75.656C26.888 75.784 26.568 75.912 26.312 76.04C26.184 76.104 25.992 76.04 25.736 75.848C25.544 75.656 25.384 75.624 25.256 75.752C25.192 75.816 25.128 75.976 25.064 76.232C25.064 76.488 25 76.648 24.872 76.712H24.776L22.472 77.768C22.152 77.896 21.768 78.088 21.32 78.344C20.872 78.6 20.488 78.76 20.168 78.824C20.104 78.824 20.072 78.696 20.072 78.44C20.072 78.184 20.008 78.12 19.88 78.248C19.56 78.376 19.208 78.728 18.824 79.304C18.504 79.816 18.184 80.168 17.864 80.36C17.544 80.616 17.224 80.744 16.904 80.744C16.584 80.744 16.296 80.872 16.04 81.128C15.848 81.256 15.656 81.544 15.464 81.992C15.336 82.376 15.176 82.664 14.984 82.856L13.64 84.68C13.512 84.808 13.384 84.936 13.256 85.064C13.128 85.192 13.064 85.352 13.064 85.544C12.68 86.184 12.488 86.92 12.488 87.752C12.488 89.16 12.968 90.184 13.928 90.824C14.952 91.4 16.072 91.848 17.288 92.168H17.384C17.832 92.488 18.248 92.616 18.632 92.552C18.888 92.424 19.112 92.36 19.304 92.36C19.56 92.36 19.784 92.488 19.976 92.744L21.32 93.032C22.024 93.224 22.376 93.416 22.376 93.608C22.376 93.736 22.216 93.864 21.896 93.992C21.64 94.056 21.352 94.088 21.032 94.088C19.944 94.088 18.6 93.864 17 93.416C15.464 92.968 14.088 92.264 12.872 91.304C11.656 90.28 10.952 89.032 10.76 87.56C10.76 87.496 10.664 87.336 10.472 87.08C10.344 86.824 10.248 86.6 10.184 86.408C10.12 86.088 10.056 85.8 9.992 85.544C9.992 85.224 9.992 84.936 9.992 84.68C9.992 82.632 10.792 80.744 12.392 79.016C12.712 78.696 13 78.472 13.256 78.344C13.512 78.216 13.832 78.024 14.216 77.768C14.536 77.512 14.696 77.32 14.696 77.192C14.696 77 14.888 76.776 15.272 76.52C15.784 76.136 16.456 75.752 17.288 75.368C18.12 74.92 18.792 74.568 19.304 74.312V74.216H19.496C19.752 74.216 20.008 74.088 20.264 73.832C21.416 73.256 22.632 72.744 23.912 72.296C25.256 71.784 26.6 71.304 27.944 70.856C28.328 70.664 28.68 70.568 29 70.568C29.32 70.568 29.576 70.664 29.768 70.856C29.768 70.728 29.768 70.632 29.768 70.568C29.768 70.44 29.8 70.344 29.864 70.28V70.184C31.336 69.736 32.808 69.288 34.28 68.84C35.752 68.328 37.192 68.072 38.6 68.072H38.696C39.08 68.072 39.368 68.008 39.56 67.88L40.136 67.784H40.232C40.616 67.912 40.968 67.848 41.288 67.592C42.888 67.272 44.424 67.08 45.896 67.016C47.368 66.952 48.616 66.888 49.64 66.824C49.832 66.888 50.024 66.92 50.216 66.92C50.408 66.856 50.568 66.824 50.696 66.824L51.656 66.728C51.848 66.728 52.04 66.76 52.232 66.824C52.488 66.824 52.712 66.792 52.904 66.728L58.28 66.632H58.376C58.568 66.632 58.728 66.728 58.856 66.92C59.048 67.048 59.24 66.984 59.432 66.728C59.944 66.728 60.712 66.824 61.736 67.016C62.824 67.208 63.912 67.4 65 67.592C66.088 67.72 66.888 67.848 67.4 67.976C68.36 68.168 69.704 68.616 71.432 69.32C73.224 69.96 75.016 70.952 76.808 72.296C78.6 73.576 80.04 75.304 81.128 77.48C82.28 79.592 82.696 82.248 82.376 85.448C82.312 86.6 82.056 87.688 81.608 88.712C81.16 89.736 80.68 90.792 80.168 91.88L79.208 93.992C79.144 94.056 79.048 94.152 78.92 94.28C78.792 94.344 78.664 94.44 78.536 94.568C78.472 94.76 78.376 94.92 78.248 95.048C78.12 95.112 77.992 95.24 77.864 95.432C77.608 95.816 77.32 96.2 77 96.584C76.68 96.904 76.36 97.288 76.04 97.736L75.848 98.024C74.952 99.432 73.832 100.712 72.488 101.864C71.144 102.952 69.8 103.944 68.456 104.84V104.936C68.328 105 68.168 105.096 67.976 105.224C67.848 105.288 67.72 105.384 67.592 105.512L67.496 105.608H67.4C67.272 105.672 67.112 105.736 66.92 105.8C66.728 105.864 66.568 106.024 66.44 106.28C66.184 106.472 65.928 106.568 65.672 106.568C64.84 107.016 64.072 107.4 63.368 107.72C62.664 107.976 62.056 108.232 61.544 108.488C61.544 108.616 61.448 108.808 61.256 109.064C61.064 109.32 60.904 109.512 60.776 109.64C59.688 110.536 58.952 111.272 58.568 111.848C58.184 112.424 57.704 112.872 57.128 113.192C57.064 113.256 56.968 113.288 56.84 113.288C56.584 113.288 56.392 113.384 56.264 113.576C56.136 113.768 56.008 113.96 55.88 114.152C55.56 114.472 54.92 114.792 53.96 115.112C53.064 115.432 52.392 115.752 51.944 116.072C51.752 116.136 51.528 116.2 51.272 116.264C51.08 116.392 50.984 116.456 50.984 116.456H50.504C50.44 116.456 50.312 116.52 50.12 116.648C49.928 116.84 49.768 116.968 49.64 117.032C49.512 117.096 49.384 117.128 49.256 117.128C49.128 117.128 49.032 117.192 48.968 117.32C48.648 117.32 48.296 117.384 47.912 117.512C47.848 117.512 47.528 117.512 46.952 117.512C46.376 117.576 46.024 117.64 45.896 117.704C45.832 117.768 45.608 117.864 45.224 117.992C44.84 118.12 44.584 118.184 44.456 118.184C44.392 118.184 44.328 118.152 44.264 118.088C44.2 118.088 44.104 118.12 43.976 118.184C43.912 118.312 43.816 118.376 43.688 118.376C43.624 118.376 43.496 118.344 43.304 118.28C43.176 118.28 43.048 118.28 42.92 118.28C42.856 118.216 42.728 118.248 42.536 118.376C42.408 118.504 42.28 118.568 42.152 118.568C42.088 118.568 42.024 118.536 41.96 118.472C41.96 118.472 41.928 118.472 41.864 118.472C41.736 118.472 41.608 118.504 41.48 118.568C41.352 118.632 41.224 118.664 41.096 118.664C40.648 118.664 40.232 118.632 39.848 118.568C39.464 118.504 39.08 118.472 38.696 118.472C38.632 118.472 38.44 118.376 38.12 118.184C37.864 117.992 37.704 117.896 37.64 117.896C37.192 117.896 36.744 117.864 36.296 117.8C35.912 117.8 35.528 117.768 35.144 117.704C35.08 117.704 35.016 117.64 34.952 117.512C34.952 117.448 34.888 117.416 34.76 117.416H34.568C34.504 117.416 34.344 117.352 34.088 117.224C33.896 117.096 33.768 117 33.704 116.936L33.608 116.84C33.352 116.776 33.192 116.68 33.128 116.552C33.128 116.424 33.064 116.36 32.936 116.36C32.872 116.36 32.84 116.36 32.84 116.36C32.84 116.424 32.808 116.456 32.744 116.456C32.616 116.456 32.552 116.392 32.552 116.264C32.36 116.136 32.04 115.976 31.592 115.784C31.208 115.592 30.952 115.368 30.824 115.112C30.568 115.048 30.408 114.984 30.344 114.92C30.344 114.856 30.28 114.728 30.152 114.536L29.768 114.344L28.808 113.48C28.808 113.288 28.776 113.192 28.712 113.192L28.424 113C28.424 112.744 28.328 112.616 28.136 112.616C28.008 112.232 27.944 112.04 27.944 112.04C27.368 113.32 26.856 114.568 26.408 115.784C26.024 117 25.672 118.12 25.352 119.144C25.224 119.656 25.032 119.912 24.776 119.912ZM41.576 117.032C41.704 117.032 41.8 117 41.864 116.936C41.992 116.872 42.088 116.808 42.152 116.744H42.536C42.984 116.488 43.208 116.488 43.208 116.744C43.208 117 43.368 117 43.688 116.744H44.168C44.232 116.552 44.328 116.456 44.456 116.456C44.648 116.456 44.776 116.424 44.84 116.36C44.968 116.36 45.032 116.296 45.032 116.168C45.096 116.104 45.224 116.072 45.416 116.072C45.48 116.072 45.576 116.136 45.704 116.264C45.96 116.264 46.472 116.136 47.24 115.88C48.072 115.624 48.52 115.496 48.584 115.496C48.648 115.56 48.744 115.496 48.872 115.304C49.064 115.112 49.192 115.048 49.256 115.112C49.256 115.048 49.352 114.984 49.544 114.92C49.736 114.92 49.864 114.888 49.928 114.824C50.312 114.632 50.632 114.536 50.888 114.536C50.952 114.472 51.112 114.344 51.368 114.152C51.688 114.024 51.848 113.928 51.848 113.864C51.976 113.736 52.168 113.64 52.424 113.576C52.68 113.512 52.84 113.448 52.904 113.384C53.096 113.384 53.736 113.064 54.824 112.424C55.976 111.72 57.032 110.888 57.992 109.928C56.904 110.312 55.848 110.632 54.824 110.888C53.864 111.08 53.352 111.176 53.288 111.176C53.16 111.304 53.064 111.368 53 111.368C52.744 111.24 52.616 111.176 52.616 111.176L52.52 111.272C52.456 111.272 52.392 111.304 52.328 111.368C52.264 111.432 52.136 111.464 51.944 111.464C51.88 111.4 51.688 111.464 51.368 111.656C51.112 111.784 50.952 111.848 50.888 111.848C50.824 111.848 50.728 111.88 50.6 111.944C50.536 111.944 50.44 111.912 50.312 111.848C50.056 112.104 49.384 112.296 48.296 112.424C47.272 112.488 46.6 112.52 46.28 112.52H46.184C46.12 112.456 46.024 112.456 45.896 112.52C45.832 112.52 45.736 112.52 45.608 112.52C45.608 112.584 45.576 112.648 45.512 112.712H44.936C44.68 112.712 44.424 112.744 44.168 112.808C43.976 112.872 43.752 112.904 43.496 112.904L43.4 112.808C43.336 112.808 43.24 112.84 43.112 112.904C42.984 112.968 42.888 113 42.824 113C42.76 113 42.696 112.968 42.632 112.904C42.632 112.776 42.568 112.712 42.44 112.712C42.376 112.712 42.28 112.776 42.152 112.904C42.088 112.968 42.024 112.968 41.96 112.904H41.576C41.384 112.904 41.288 112.904 41.288 112.904C41.224 112.904 41.16 112.936 41.096 113C41.096 113 41.064 113 41 113C41 113 40.936 112.936 40.808 112.808C40.744 112.808 40.616 112.872 40.424 113C40.296 113.064 40.168 113.064 40.04 113H39.848C39.72 112.872 39.656 112.808 39.656 112.808C39.592 112.808 39.56 112.84 39.56 112.904H38.696C38.312 112.904 37.928 112.776 37.544 112.52C37.16 112.264 36.808 112.136 36.488 112.136C36.424 112.136 36.36 112.168 36.296 112.232C36.296 112.232 36.264 112.232 36.2 112.232C36.136 112.232 36.072 112.232 36.008 112.232C36.008 112.168 35.976 112.136 35.912 112.136C35.912 112.136 35.88 112.136 35.816 112.136C35.816 112.136 35.784 112.168 35.72 112.232C35.72 112.168 35.688 112.136 35.624 112.136C35.624 112.072 35.624 112.04 35.624 112.04L34.76 111.848C34.76 111.656 34.696 111.56 34.568 111.56C34.504 111.368 34.088 111.176 33.32 110.984C32.552 110.792 32.104 110.664 31.976 110.6C31.912 110.6 31.784 110.536 31.592 110.408C31.464 110.28 31.4 110.248 31.4 110.312H31.304C31.112 110.312 30.856 110.184 30.536 109.928C30.28 109.608 30.024 109.416 29.768 109.352C29.576 109.16 29.48 108.968 29.48 108.776H29.384L29.288 108.872L29.096 109.448C29.096 109.512 29.128 109.64 29.192 109.832C29.256 110.024 29.256 110.184 29.192 110.312C29.32 110.44 29.384 110.6 29.384 110.792C29.384 110.92 29.448 111.016 29.576 111.08C29.64 111.272 29.704 111.464 29.768 111.656C29.896 111.848 29.992 112.04 30.056 112.232C30.056 112.296 30.216 112.424 30.536 112.616C30.856 112.744 31.016 112.872 31.016 113C31.08 113.064 31.144 113.128 31.208 113.192C31.336 113.256 31.4 113.352 31.4 113.48C31.464 113.544 31.528 113.64 31.592 113.768C31.656 113.896 31.688 114.024 31.688 114.152C31.816 114.152 31.912 114.184 31.976 114.248C32.04 114.376 32.2 114.568 32.456 114.824C32.712 115.144 32.904 115.336 33.032 115.4C33.096 115.4 33.128 115.368 33.128 115.304C33.128 115.304 33.16 115.304 33.224 115.304C33.352 115.368 33.512 115.496 33.704 115.688C33.896 115.944 34.024 116.072 34.088 116.072C34.216 116.072 34.28 116.072 34.28 116.072C34.792 116.136 35.304 116.2 35.816 116.264C36.328 116.392 36.84 116.488 37.352 116.552C37.416 116.552 37.512 116.584 37.64 116.648C37.768 116.776 37.928 116.84 38.12 116.84C38.632 116.904 39.24 116.936 39.944 116.936C40.712 116.936 41.224 116.936 41.48 116.936L41.576 117.032ZM86.4208 113.192C84.8208 113.192 83.4128 112.744 82.1968 111.848C80.9808 110.952 80.3727 109.416 80.3727 107.24C80.3727 106.408 80.4688 105.576 80.6608 104.744C80.8528 103.848 81.0768 102.984 81.3328 102.152C81.4608 101.32 81.6528 100.584 81.9088 99.944C81.9728 99.688 82.0048 99.56 82.0048 99.56C82.0688 99.496 82.2288 99.4 82.4848 99.272L83.2528 98.12V97.736C83.1888 97.736 83.1568 97.736 83.1568 97.736C83.1568 97.672 83.1568 97.64 83.1568 97.64C83.1568 97.448 83.3168 97.224 83.6367 96.968C83.9568 96.712 84.1168 96.584 84.1168 96.584C84.1808 96.264 84.2768 96.104 84.4048 96.104C84.5328 96.104 84.6928 96.008 84.8848 95.816H85.9408V95.624C85.9408 95.304 85.7808 95.176 85.4608 95.24C85.2048 95.24 85.0768 95.208 85.0768 95.144C85.0768 95.08 85.1728 94.952 85.3648 94.76C85.6208 94.504 85.7808 94.344 85.8448 94.28C86.0368 94.024 86.1968 93.8 86.3248 93.608C86.4528 93.352 86.6448 93.16 86.9008 93.032C88.0528 91.624 88.7568 90.728 89.0128 90.344C89.3328 89.96 89.6528 89.672 89.9728 89.48C90.1008 89.48 90.1968 89.544 90.2608 89.672C90.3888 89.736 90.3888 89.832 90.2608 89.96C90.3888 90.152 90.4848 90.184 90.5488 90.056C90.6768 89.928 90.7408 89.864 90.7408 89.864L91.1248 89.672C90.9968 89.544 90.9328 89.384 90.9328 89.192C90.9328 88.872 90.9968 88.616 91.1248 88.424C91.2528 88.168 91.4768 87.912 91.7968 87.656C92.1808 87.4 92.3728 87.24 92.3728 87.176C92.7568 87.048 93.0448 86.92 93.2368 86.792C93.4928 86.664 93.7488 86.6 94.0048 86.6C94.4528 86.6 94.9008 86.76 95.3488 87.08C96.5648 87.72 97.5888 88.36 98.4208 89C99.2528 89.64 99.6688 90.536 99.6688 91.688C99.6688 92.904 99.1568 93.96 98.1328 94.856C97.1728 95.688 95.9888 96.392 94.5807 96.968C93.1727 97.544 91.7648 98.024 90.3568 98.408C89.0128 98.728 87.9568 98.984 87.1888 99.176C86.7408 99.24 86.5168 99.432 86.5168 99.752C86.5808 100.008 86.5488 100.296 86.4208 100.616L85.7488 101.672L85.1728 103.016L84.6928 103.88C84.2448 104.264 84.0848 104.552 84.2128 104.744C84.3408 104.936 84.5648 104.904 84.8848 104.648C84.9488 104.712 84.9808 104.808 84.9808 104.936C84.9808 105.192 84.9168 105.512 84.7888 105.896C84.6608 106.216 84.5648 106.472 84.5008 106.664C84.4368 106.92 84.4368 107.048 84.5008 107.048C84.6288 106.984 84.6928 107.112 84.6928 107.432L84.7888 108.776C85.1728 109.992 86.0368 110.696 87.3808 110.888C87.5088 110.888 87.6368 110.92 87.7648 110.984C87.9568 110.984 88.1168 110.984 88.2448 110.984C89.3968 110.984 90.0048 110.888 90.0688 110.696C90.1968 110.504 90.3568 110.376 90.5488 110.312C91.1248 110.184 91.6048 110.056 91.9888 109.928C92.4368 109.8 92.8848 109.608 93.3328 109.352C94.1008 109.032 94.8368 108.616 95.5408 108.104C96.2448 107.592 96.9808 107.08 97.7488 106.568L98.7088 105.896C98.7728 105.768 98.7728 105.672 98.7088 105.608C98.6448 105.544 98.6448 105.48 98.7088 105.416C98.8368 105.352 98.9328 105.352 98.9968 105.416C99.1248 105.416 99.2208 105.384 99.2848 105.32C99.4128 105.256 99.5408 105.16 99.6688 105.032C99.7968 104.84 99.9248 104.68 100.053 104.552C100.181 104.424 100.245 104.296 100.245 104.168C100.309 104.04 100.405 103.912 100.533 103.784C101.045 103.272 101.557 102.728 102.069 102.152C102.645 101.576 103.125 101.064 103.509 100.616C103.957 99.976 104.309 99.656 104.565 99.656C104.693 99.656 104.757 99.72 104.757 99.848C104.757 100.168 104.533 100.648 104.085 101.288C102.997 102.888 101.749 104.456 100.341 105.992C98.9328 107.464 97.3968 108.808 95.7328 110.024C94.5168 110.856 93.0768 111.592 91.4128 112.232C89.7488 112.872 88.0848 113.192 86.4208 113.192ZM87.8608 97.736C88.8208 97.672 90.0688 97.416 91.6048 96.968C93.1408 96.456 94.4208 95.784 95.4448 94.952C96.5328 94.056 97.0768 93.064 97.0768 91.976C97.0768 90.952 96.5328 89.96 95.4448 89C94.5488 89.64 93.5568 90.568 92.4688 91.784C91.4448 92.936 90.5168 94.088 89.6848 95.24C88.8528 96.328 88.2448 97.16 87.8608 97.736ZM111.542 113.288C109.174 113.288 107.382 112.872 106.166 112.04C104.95 111.208 104.118 110.216 103.67 109.064C103.222 107.912 103.094 106.6 103.286 105.128L103.478 104.84C103.606 104.648 103.702 104.392 103.766 104.072C103.83 103.752 103.894 103.56 103.958 103.496L104.726 103.688C104.854 103.752 104.95 103.656 105.014 103.4C105.078 103.144 105.046 103.048 104.918 103.112C104.534 103.176 104.342 103.24 104.342 103.304C104.342 103.368 104.278 103.24 104.15 102.92L104.438 102.728L104.342 102.632C104.342 102.504 104.406 102.44 104.534 102.44L104.342 102.152C104.342 102.152 104.598 102.184 105.11 102.248C105.686 102.248 105.91 102.184 105.782 102.056C105.846 102.056 105.814 102.024 105.686 101.96C105.558 101.832 105.494 101.736 105.494 101.672C105.43 101.736 105.398 101.736 105.398 101.672C105.398 101.544 105.174 101.544 104.726 101.672C104.534 101.736 104.438 101.704 104.438 101.576C104.438 101.448 104.438 101.384 104.438 101.384C104.63 101.32 104.822 101.256 105.014 101.192C105.206 101.064 105.334 100.872 105.398 100.616C105.462 99.976 105.526 99.624 105.59 99.56C105.654 99.496 105.718 99.4 105.782 99.272C105.846 99.144 105.942 98.984 106.07 98.792C106.198 98.536 106.294 98.408 106.358 98.408C106.294 98.344 106.262 98.248 106.262 98.12C106.262 97.8 106.486 97.672 106.934 97.736C107.446 97.8 107.606 97.608 107.414 97.16C107.222 96.904 107.318 96.776 107.702 96.776L107.606 96.68C107.862 96.552 108.022 96.488 108.086 96.488C108.214 96.424 108.15 96.296 107.894 96.104L108.278 95.24C108.342 95.112 108.47 94.92 108.662 94.664C108.918 94.344 109.302 94.024 109.814 93.704C109.814 93.704 109.782 93.736 109.718 93.8C109.718 93.8 109.718 93.832 109.718 93.896H109.814C110.006 93.896 110.358 93.704 110.87 93.32C110.806 93.256 110.678 93.224 110.486 93.224C110.358 93.16 110.262 93.096 110.198 93.032C110.134 92.84 110.454 92.424 111.158 91.784C111.862 91.144 112.63 90.536 113.462 89.96C114.294 89.32 114.806 88.936 114.998 88.808C115.958 88.296 117.014 87.88 118.166 87.56C119.382 87.176 120.438 87.08 121.334 87.272C121.526 87.336 121.814 87.592 122.198 88.04C122.646 88.488 122.966 88.616 123.158 88.424C123.734 87.912 124.406 87.4 125.174 86.888C125.942 86.376 126.39 86.152 126.518 86.216C126.838 86.28 127.158 86.408 127.478 86.6C127.798 86.728 127.958 87.112 127.958 87.752C127.958 88.2 127.926 88.584 127.862 88.904C127.798 89.288 127.638 89.608 127.382 89.864C127.126 90.12 126.87 90.408 126.614 90.728C126.358 91.112 125.878 91.72 125.174 92.552C124.534 93.32 124.054 93.8 123.734 93.992C123.542 94.056 123.318 94.248 123.062 94.568C122.87 94.824 122.614 95.08 122.294 95.336C122.038 95.528 121.718 95.688 121.334 95.816C121.014 95.88 120.79 95.944 120.662 96.008C120.534 96.072 120.31 96.104 119.99 96.104C119.734 96.04 119.67 95.912 119.798 95.72C119.862 95.656 119.862 95.592 119.798 95.528C119.798 95.4 119.798 95.304 119.798 95.24C119.862 95.112 119.958 95.016 120.086 94.952C120.214 94.888 120.31 94.792 120.374 94.664C120.438 94.6 120.598 94.376 120.854 93.992C121.174 93.608 121.334 93.384 121.334 93.32C121.27 93.256 121.27 93.192 121.334 93.128C121.398 93 121.43 92.904 121.43 92.84C121.494 92.776 121.526 92.68 121.526 92.552C121.526 92.424 121.59 92.36 121.718 92.36C121.974 92.296 122.102 92.2 122.102 92.072C122.102 91.56 122.134 91.08 122.198 90.632C122.326 90.184 122.294 89.8 122.102 89.48C121.846 88.968 121.366 88.712 120.662 88.712C119.702 88.712 118.582 89.128 117.302 89.96C116.022 90.728 115.158 91.368 114.71 91.88C112.662 94.184 110.998 96.776 109.718 99.656C108.438 102.536 107.926 105.096 108.182 107.336C108.31 108.424 108.758 109.32 109.526 110.024C110.294 110.728 111.158 111.08 112.118 111.08H113.75C113.942 111.08 114.134 111.08 114.326 111.08C114.582 111.016 114.838 110.952 115.094 110.888C115.478 110.76 115.766 110.696 115.958 110.696C116.278 110.376 116.47 110.376 116.534 110.696C117.046 110.44 117.27 110.344 117.206 110.408C117.142 110.472 117.238 110.472 117.494 110.408C118.774 110.088 120.022 109.544 121.238 108.776C122.454 108.008 123.574 107.24 124.598 106.472C124.79 106.344 125.11 106.152 125.558 105.896C126.006 105.64 126.326 105.448 126.518 105.32C126.646 105.128 126.742 104.968 126.806 104.84C126.934 104.648 127.094 104.52 127.286 104.456C127.414 104.264 127.574 104.072 127.766 103.88C127.958 103.624 128.086 103.464 128.15 103.4C128.47 103.272 128.566 103.176 128.438 103.112C128.31 102.984 128.47 102.824 128.918 102.632C129.046 102.568 129.174 102.536 129.302 102.536C129.43 102.536 129.494 102.6 129.494 102.728C129.494 102.856 129.302 103.208 128.918 103.784C128.662 104.232 128.182 104.808 127.478 105.512L126.518 106.472L125.366 107.048C125.238 107.176 125.174 107.304 125.174 107.432C125.174 107.496 125.11 107.592 124.982 107.72C123.19 109.32 121.142 110.664 118.838 111.752C116.598 112.776 114.166 113.288 111.542 113.288ZM129.772 116.456C129.644 116.072 129.58 115.688 129.58 115.304C129.58 115.112 129.612 114.92 129.676 114.728C129.676 114.6 129.708 114.44 129.772 114.248C129.836 114.056 129.996 113.544 130.252 112.712C130.572 111.88 130.86 111.016 131.116 110.12C131.436 109.224 131.66 108.712 131.788 108.584C131.788 108.584 131.98 108.104 132.364 107.144C132.812 106.12 133.292 105.064 133.804 103.976C134.316 102.824 134.7 102.088 134.956 101.768C135.276 101.064 135.756 100.2 136.396 99.176C137.1 98.088 137.772 96.808 138.412 95.336V94.856C138.412 94.664 138.412 94.504 138.412 94.376C138.476 94.184 138.54 93.992 138.604 93.8C138.86 93.288 139.084 92.936 139.276 92.744C139.532 92.552 139.788 92.2 140.044 91.688C140.044 91.56 140.044 91.432 140.044 91.304C140.108 91.176 140.172 91.048 140.236 90.92C140.108 91.048 140.076 90.952 140.14 90.632C140.012 90.632 140.14 90.312 140.524 89.672C140.78 89.096 140.972 88.776 141.1 88.712H141.196C141.452 88.328 141.676 88.008 141.868 87.752C142.06 87.432 142.124 87.24 142.06 87.176V86.984C142.06 86.536 142.188 86.12 142.444 85.736C142.764 85.352 143.052 84.936 143.308 84.488C143.5 84.232 143.66 84.104 143.788 84.104C143.916 84.104 143.98 84.136 143.98 84.2C144.044 84.2 144.108 84.2 144.172 84.2C144.364 84.2 144.46 84.04 144.46 83.72C144.46 83.592 144.428 83.432 144.364 83.24C144.364 83.048 144.332 82.824 144.268 82.568C144.332 82.248 144.588 81.992 145.036 81.8L145.324 81.704C145.644 80.36 146.028 79.464 146.476 79.016C146.604 78.888 146.732 78.76 146.86 78.632C146.988 78.504 147.116 78.376 147.244 78.248C148.012 77.416 148.588 76.52 148.972 75.56C149.1 75.304 149.26 75.112 149.452 74.984C149.708 74.792 149.932 74.568 150.124 74.312C150.252 74.12 150.284 73.928 150.22 73.736C150.22 73.48 150.252 73.256 150.316 73.064C150.636 72.552 150.86 72.264 150.988 72.2C151.116 72.136 151.244 72.072 151.372 72.008C151.564 71.88 151.884 71.592 152.332 71.144C152.524 70.824 152.716 70.504 152.908 70.184C153.164 69.864 153.42 69.544 153.676 69.224C154.06 68.776 154.476 68.456 154.924 68.264C155.372 68.072 155.82 67.784 156.268 67.4C156.396 67.272 156.46 67.08 156.46 66.824C156.46 66.504 156.524 66.28 156.652 66.152C158.892 64.36 161.292 62.856 163.852 61.64C166.476 60.424 168.492 59.816 169.9 59.816C170.412 59.816 170.892 59.848 171.34 59.912C171.852 59.976 172.332 60.072 172.78 60.2H172.972C173.292 60.2 173.612 60.264 173.932 60.392C174.252 60.52 174.54 60.648 174.796 60.776C175.052 60.776 175.372 60.84 175.756 60.968C176.076 61.096 176.268 61.288 176.332 61.544C176.396 61.8 176.332 61.992 176.14 62.12C176.076 62.184 175.98 62.184 175.852 62.12C175.724 62.056 175.596 62.024 175.468 62.024C175.34 62.024 175.212 61.96 175.084 61.832C174.956 61.704 174.828 61.608 174.7 61.544C174.444 61.544 174.156 61.576 173.836 61.64C173.58 61.704 173.292 61.736 172.972 61.736H172.684C172.236 61.736 171.916 61.672 171.724 61.544C171.596 61.352 171.276 61.32 170.764 61.448C170.7 61.448 170.508 61.48 170.188 61.544C169.868 61.608 169.644 61.64 169.516 61.64C167.212 62.216 165.196 63.176 163.468 64.52C161.74 65.8 160.204 67.24 158.86 68.84C157.58 70.44 156.332 71.976 155.116 73.448C154.54 74.6 153.964 75.528 153.388 76.232C153.324 76.296 153.26 76.264 153.196 76.136C153.132 76.008 153.068 76.008 153.004 76.136C152.812 76.328 152.652 76.648 152.524 77.096C152.46 77.48 152.332 77.8 152.14 78.056C152.076 78.12 152.012 78.088 151.948 77.96C151.884 77.832 151.788 77.832 151.66 77.96C151.596 78.024 151.5 78.28 151.372 78.728C151.308 79.112 151.212 79.368 151.084 79.496C150.316 80.52 149.484 81.512 148.588 82.472C147.692 83.432 146.796 84.552 145.9 85.832C144.62 87.816 143.404 89.768 142.252 91.688C141.1 93.608 139.884 95.72 138.604 98.024C138.156 98.792 137.804 99.496 137.548 100.136C137.356 100.712 137.132 101.256 136.876 101.768C136.556 102.536 136.396 103.08 136.396 103.4C136.396 103.848 136.684 103.944 137.26 103.688C137.516 103.56 137.868 103.24 138.316 102.728C138.828 102.152 139.18 101.832 139.372 101.768C139.436 101.704 139.532 101.672 139.66 101.672C139.916 101.672 140.044 101.768 140.044 101.96C140.044 102.216 139.884 102.44 139.564 102.632C139.308 102.76 139.148 102.92 139.084 103.112C139.02 103.304 138.86 103.56 138.604 103.88C138.412 104.008 138.284 104.2 138.22 104.456C138.156 104.712 138.092 104.872 138.028 104.936C137.964 105.064 137.932 105.256 137.932 105.512C137.932 105.704 137.772 105.928 137.452 106.184C137.388 106.248 137.324 106.376 137.26 106.568C137.26 106.76 137.228 106.92 137.164 107.048C137.1 107.24 136.972 107.4 136.78 107.528C136.652 107.592 136.588 107.656 136.588 107.72C136.524 107.976 136.396 108.136 136.204 108.2C136.076 108.2 135.948 108.264 135.82 108.392C135.756 108.456 135.756 108.552 135.82 108.68C135.884 108.808 135.852 108.936 135.724 109.064L134.764 111.08C134.7 111.208 134.604 111.336 134.476 111.464C134.412 111.592 134.316 111.688 134.188 111.752C134.124 111.752 133.996 111.72 133.804 111.656C133.676 111.592 133.612 111.624 133.612 111.752C133.548 111.816 133.548 112.008 133.612 112.328C133.74 112.584 133.708 112.776 133.516 112.904C133.324 113.032 133.132 113.288 132.94 113.672C132.812 114.12 132.684 114.408 132.556 114.536C132.3 114.792 132.076 114.952 131.884 115.016C131.692 115.144 131.5 115.336 131.308 115.592C131.244 115.656 131.02 115.912 130.636 116.36C130.252 116.872 129.964 116.904 129.772 116.456ZM157.9 114.536C157.26 114.536 156.78 114.408 156.46 114.152C156.332 114.088 156.172 113.992 155.98 113.864C155.852 113.736 155.724 113.672 155.596 113.672H155.404C155.34 113.672 155.244 113.576 155.116 113.384C154.988 113.256 154.86 113.16 154.732 113.096C154.668 113.096 154.444 112.968 154.06 112.712C153.676 112.392 153.42 112.2 153.292 112.136C153.228 112.072 153.164 112.008 153.1 111.944C153.1 111.816 153.068 111.752 153.004 111.752H152.812C152.812 111.752 152.812 111.688 152.812 111.56C152.62 111.304 152.428 111.08 152.236 110.888C152.044 110.696 151.916 110.472 151.852 110.216L151.66 110.312C151.596 110.184 151.5 110.056 151.372 109.928C151.308 109.736 151.212 109.608 151.084 109.544C151.084 109.416 150.892 109.128 150.508 108.68C150.188 108.232 149.964 107.976 149.836 107.912C149.836 107.72 149.772 107.56 149.644 107.432C149.516 107.24 149.388 107.08 149.26 106.952C149.26 106.76 149.26 106.664 149.26 106.664C149.132 106.344 148.94 106.088 148.684 105.896C148.492 105.64 148.332 105.384 148.204 105.128C148.076 104.872 147.98 104.648 147.916 104.456C147.916 104.264 147.916 104.136 147.916 104.072C147.788 103.88 147.5 103.56 147.052 103.112L146.956 103.016C146.956 102.888 146.924 102.728 146.86 102.536C146.796 102.344 146.732 102.184 146.668 102.056C146.476 101.928 146.316 101.704 146.188 101.384C146.124 101.064 146.028 100.808 145.9 100.616V100.232L145.132 98.984C145.068 98.856 145.036 98.728 145.036 98.6C145.036 98.472 144.972 98.344 144.844 98.216C144.524 98.152 144.492 97.896 144.748 97.448C144.556 97 144.364 96.776 144.172 96.776C144.044 96.776 143.916 96.872 143.788 97.064C143.66 97.192 143.564 97.288 143.5 97.352C143.436 97.352 143.34 97.512 143.212 97.832C143.084 98.088 142.988 98.248 142.924 98.312C142.86 98.696 142.668 98.984 142.348 99.176C142.092 99.368 141.9 99.624 141.772 99.944C141.324 100.904 140.876 101.32 140.428 101.192C140.364 101.192 140.332 101.128 140.332 101C140.332 100.936 140.332 100.84 140.332 100.712C140.332 100.52 140.396 100.296 140.524 100.04L140.908 99.272C141.036 99.144 141.164 99.016 141.292 98.888C141.484 98.696 141.644 98.536 141.772 98.408C142.348 97.704 142.796 97.096 143.116 96.584C143.436 96.008 144.108 95.4 145.132 94.76C145.452 94.568 145.676 94.376 145.804 94.184C146.188 94.12 146.476 93.832 146.668 93.32L146.86 93.416C146.924 93.288 146.988 93.224 147.052 93.224C147.18 93.224 147.276 93.192 147.34 93.128C148.236 92.424 149.036 91.848 149.74 91.4C150.508 90.888 151.34 90.312 152.236 89.672C152.236 89.672 152.428 89.48 152.812 89.096C153.196 88.712 153.452 88.488 153.58 88.424C153.644 88.36 153.804 88.328 154.06 88.328C154.188 88.264 154.38 88.136 154.636 87.944C154.892 87.752 155.052 87.624 155.116 87.56C155.244 87.56 155.372 87.528 155.5 87.464C155.628 87.4 155.724 87.368 155.788 87.368C156.236 86.792 156.812 86.44 157.516 86.312C157.516 86.248 157.516 86.216 157.516 86.216C157.58 86.152 157.612 86.088 157.612 86.024H157.804C157.868 86.024 157.932 85.992 157.996 85.928C158.06 85.864 158.124 85.832 158.188 85.832C158.316 85.768 158.476 85.704 158.668 85.64C158.924 85.512 159.052 85.384 159.052 85.256C159.052 85.192 159.116 85.224 159.244 85.352C159.308 85.352 159.5 85.32 159.82 85.256C160.204 85.192 160.428 85.128 160.492 85.064L160.588 85.16L161.164 84.776L162.124 84.584C162.316 84.52 162.572 84.456 162.892 84.392C163.276 84.328 163.564 84.328 163.756 84.392C163.756 84.392 163.788 84.424 163.852 84.488C164.236 84.488 164.332 84.776 164.14 85.352C163.948 85.928 163.66 86.472 163.276 86.984C162.892 87.496 162.604 87.72 162.412 87.656C162.412 87.656 162.38 87.624 162.316 87.56C162.252 87.56 162.06 87.624 161.74 87.752C161.42 87.816 161.196 87.848 161.068 87.848C161.004 87.784 160.94 87.752 160.876 87.752C160.812 87.816 160.716 87.944 160.588 88.136C160.524 88.264 160.396 88.392 160.204 88.52C160.14 88.584 159.66 88.68 158.764 88.808C157.868 88.936 157.356 88.968 157.228 88.904H157.132C156.94 88.904 156.364 89.128 155.404 89.576C154.508 89.96 153.932 90.216 153.676 90.344C153.548 90.408 153.42 90.44 153.292 90.44C153.164 90.376 153.036 90.408 152.908 90.536C152.716 90.6 152.524 90.696 152.332 90.824C152.204 90.952 152.044 91.08 151.852 91.208C151.404 91.592 150.604 92.072 149.452 92.648C148.364 93.224 147.628 93.864 147.244 94.568C147.052 94.824 147.02 95.048 147.148 95.24C147.34 95.432 147.404 95.56 147.34 95.624L151.372 102.824C151.5 102.952 151.628 103.144 151.756 103.4C151.948 103.656 152.076 103.848 152.14 103.976C152.268 104.04 152.364 104.136 152.428 104.264C152.492 104.392 152.588 104.52 152.716 104.648C152.844 105.032 153.1 105.384 153.484 105.704C153.868 106.024 154.028 106.344 153.964 106.664L154.444 107.048C154.508 107.048 154.54 107.112 154.54 107.24C154.604 107.304 154.7 107.336 154.828 107.336C154.828 107.4 154.924 107.592 155.116 107.912C155.372 108.232 155.532 108.456 155.596 108.584L155.692 108.488C155.884 108.808 156.108 109.128 156.364 109.448C156.684 109.704 156.972 109.96 157.228 110.216L157.612 110.408C157.74 110.472 157.868 110.6 157.996 110.792C158.124 110.92 158.22 110.984 158.284 110.984H158.38C158.636 110.984 158.796 111.048 158.86 111.176C158.988 111.24 159.148 111.272 159.34 111.272C159.404 111.336 159.436 111.4 159.436 111.464C159.5 111.464 159.564 111.496 159.628 111.56C159.692 111.56 159.724 111.56 159.724 111.56C159.788 111.496 159.852 111.464 159.916 111.464C160.044 111.464 160.076 111.496 160.012 111.56C160.012 111.56 160.044 111.56 160.108 111.56H160.3C160.684 111.56 161.164 111.496 161.74 111.368C162.38 111.176 162.732 110.952 162.796 110.696C162.924 110.696 163.02 110.6 163.084 110.408C163.34 110.28 163.468 110.184 163.468 110.12C163.468 109.992 163.5 109.864 163.564 109.736L163.852 109.544C163.98 109.224 164.044 108.744 164.044 108.104C164.108 107.464 164.172 107.016 164.236 106.76C164.364 106.248 164.396 105.864 164.332 105.608C164.268 105.352 164.268 105 164.332 104.552C164.332 104.424 164.3 104.328 164.236 104.264C164.172 104.136 164.14 104.04 164.14 103.976V103.784C164.14 103.528 164.076 103.304 163.948 103.112C163.884 102.856 163.788 102.6 163.66 102.344L163.372 101.384C163.372 101.32 163.34 101.288 163.276 101.288C163.276 101.224 163.276 101.192 163.276 101.192C163.276 100.872 163.404 100.712 163.66 100.712C163.852 100.712 164.108 100.968 164.428 101.48L165.1 102.728C165.356 102.792 165.452 102.856 165.388 102.92C165.324 102.984 165.324 103.144 165.388 103.4L165.58 103.784V103.88C165.58 104.072 165.676 104.328 165.868 104.648C166.06 104.904 166.188 105.096 166.252 105.224C166.316 105.48 166.38 105.736 166.444 105.992C166.572 106.248 166.572 106.536 166.444 106.856L166.348 107.72C166.284 107.784 166.22 107.88 166.156 108.008C166.092 108.136 165.964 108.232 165.772 108.296C165.644 108.36 165.484 108.328 165.292 108.2C165.1 108.072 165.004 108.072 165.004 108.2C164.876 108.328 164.876 108.456 165.004 108.584C164.876 108.712 164.78 108.872 164.716 109.064C164.716 109.256 164.684 109.448 164.62 109.64C164.62 109.704 164.588 109.768 164.524 109.832C164.46 109.832 164.428 109.864 164.428 109.928C164.364 109.992 164.332 110.088 164.332 110.216C164.332 110.28 164.3 110.344 164.236 110.408C164.172 110.536 164.012 110.856 163.756 111.368C163.5 111.88 163.244 112.392 162.988 112.904C162.732 113.352 162.572 113.608 162.508 113.672L161.548 114.056C161.484 114.056 161.452 113.992 161.452 113.864C161.324 113.928 161.196 113.992 161.068 114.056C160.94 114.184 160.812 114.28 160.684 114.344H160.108C160.044 114.344 159.948 114.376 159.82 114.44C159.756 114.504 159.66 114.504 159.532 114.44H159.436L159.244 114.536C159.116 114.408 159.052 114.344 159.052 114.344C158.988 114.28 158.828 114.28 158.572 114.344C158.38 114.472 158.156 114.536 157.9 114.536ZM157.221 140.264C156.261 140.264 155.429 140.168 154.725 139.976C154.277 139.848 153.829 139.688 153.381 139.496C152.933 139.304 152.453 139.08 151.941 138.824L151.749 138.728C151.493 138.6 151.205 138.408 150.885 138.152C150.565 137.96 150.245 137.8 149.925 137.672C149.669 137.608 149.317 137.416 148.869 137.096C148.549 136.84 148.357 136.584 148.293 136.328C148.165 136.072 148.197 135.912 148.389 135.848C148.453 135.848 148.549 135.88 148.677 135.944C148.805 136.072 148.933 136.168 149.061 136.232C149.189 136.296 149.349 136.392 149.541 136.52C149.669 136.648 149.797 136.744 149.925 136.808C150.245 136.936 150.533 137.032 150.789 137.096C150.981 137.224 151.205 137.352 151.461 137.48C152.037 137.736 152.453 137.896 152.709 137.96C152.965 138.024 153.349 138.088 153.861 138.152L155.109 138.248C158.501 138.504 161.349 137.864 163.653 136.328C165.893 134.792 167.782 133.16 169.318 131.432C169.51 130.92 169.702 130.44 169.894 129.992C170.15 129.608 170.406 129.288 170.662 129.032C170.726 128.968 170.79 129 170.854 129.128C170.982 129.32 171.078 129.384 171.142 129.32C171.27 129.128 171.334 128.808 171.334 128.36C171.398 127.976 171.526 127.688 171.718 127.496C171.782 127.432 171.846 127.496 171.91 127.688C172.038 127.88 172.134 127.944 172.198 127.88C172.326 127.752 172.39 127.496 172.39 127.112C172.454 126.728 172.518 126.504 172.582 126.44C173.222 125.544 173.798 124.712 174.31 123.944C174.822 123.176 175.398 122.248 176.038 121.16C176.614 120.264 177.286 119.112 178.054 117.704C178.886 116.36 179.622 115.112 180.262 113.96C180.902 112.936 181.382 111.848 181.702 110.696L181.99 109.64C182.31 108.424 182.95 106.76 183.91 104.648C184.934 102.472 186.118 100.136 187.462 97.64C188.87 95.08 190.278 92.648 191.686 90.344C192.006 89.96 192.262 89.64 192.454 89.384C192.646 89.128 192.934 88.808 193.318 88.424C193.446 88.36 193.702 88.072 194.086 87.56C194.47 87.048 194.854 86.536 195.238 86.024C195.686 85.448 195.942 85.128 196.006 85.064C197.862 83.528 199.91 82.312 202.15 81.416C204.454 80.456 206.246 79.976 207.526 79.976C208.038 79.976 208.39 79.976 208.582 79.976C208.838 79.912 209.158 79.912 209.542 79.976L210.214 80.072C210.47 80.136 210.694 80.232 210.886 80.36C211.142 80.424 211.398 80.488 211.654 80.552C211.782 80.616 211.942 80.712 212.134 80.84C212.326 80.968 212.486 81.064 212.614 81.128C212.87 81.32 212.998 81.544 212.998 81.8C212.998 81.992 212.934 82.12 212.806 82.184C212.742 82.248 212.646 82.248 212.518 82.184C212.454 82.056 212.358 81.992 212.23 81.992C212.102 81.992 211.974 81.96 211.846 81.896C211.718 81.832 211.59 81.768 211.462 81.704C211.206 81.704 210.982 81.672 210.79 81.608C210.598 81.544 210.406 81.48 210.214 81.416C209.958 81.352 209.734 81.32 209.542 81.32C209.35 81.32 209.19 81.32 209.062 81.32C208.806 81.32 208.55 81.352 208.294 81.416C208.23 81.416 208.038 81.448 207.718 81.512C207.462 81.512 207.27 81.544 207.142 81.608C204.198 82.312 201.798 83.656 199.942 85.64C198.086 87.624 196.422 89.64 194.95 91.688C194.694 92.008 194.342 92.424 193.894 92.936C193.51 93.384 193.254 93.672 193.126 93.8C193.062 93.928 192.774 94.376 192.262 95.144C191.75 95.848 191.238 96.584 190.726 97.352C190.278 98.056 190.022 98.44 189.958 98.504C189.894 98.568 189.766 98.6 189.574 98.6C189.446 98.6 189.35 98.632 189.286 98.696L186.982 103.304L186.022 105.128L184.774 107.624C184.134 108.84 183.558 110.088 183.046 111.368C182.534 112.584 182.118 113.768 181.798 114.92C181.606 115.368 181.51 115.88 181.51 116.456C181.51 117.032 181.35 117.384 181.03 117.512C180.838 117.576 180.678 117.48 180.549 117.224C180.422 116.968 180.358 117.192 180.358 117.896C180.486 117.96 180.486 118.088 180.358 118.28C180.294 118.472 180.262 118.632 180.262 118.76C180.326 118.888 180.358 119.08 180.358 119.336C180.358 119.656 180.23 119.944 179.974 120.2C179.782 120.456 179.622 120.744 179.494 121.064C179.366 121.32 179.206 121.384 179.014 121.256C178.822 121.192 178.662 121.16 178.534 121.16L178.438 121.352C178.438 121.544 178.534 121.992 178.726 122.696C178.726 123.08 178.534 123.272 178.15 123.272H177.862C177.798 124.616 177.542 125.416 177.094 125.672L176.422 126.152L176.23 126.536C175.846 127.304 175.558 127.656 175.366 127.592L175.078 128.36C175.014 128.552 174.854 128.712 174.598 128.84C174.406 128.968 174.246 129.128 174.118 129.32C174.118 129.384 174.086 129.416 174.022 129.416C174.022 129.416 174.022 129.448 174.022 129.512C174.022 130.28 173.67 131.048 172.966 131.816C172.326 132.584 171.654 133.256 170.95 133.832C170.822 134.088 170.662 134.344 170.47 134.6C170.278 134.856 170.054 135.08 169.798 135.272C169.478 135.592 169.094 135.784 168.646 135.848C168.262 135.912 167.878 136.104 167.494 136.424C167.366 136.488 167.302 136.648 167.302 136.904C167.366 137.224 167.334 137.416 167.206 137.48C165.797 138.376 164.165 139.048 162.309 139.496C160.453 140.008 158.757 140.264 157.221 140.264ZM173.254 112.904C172.422 112.904 171.718 112.424 171.142 111.464C170.566 110.44 170.406 109.672 170.662 109.16C170.726 109.032 170.79 108.872 170.854 108.68C170.982 108.424 171.078 108.264 171.142 108.2C171.27 108.072 171.334 108.04 171.334 108.104C171.398 108.104 171.462 108.072 171.526 108.008C171.59 107.88 171.558 107.784 171.43 107.72C171.366 107.592 171.366 107.496 171.43 107.432L172.582 103.112C172.582 103.048 172.614 102.984 172.678 102.92C172.742 102.856 172.773 102.792 172.773 102.728L172.966 101C172.966 100.936 173.03 100.936 173.158 101C173.286 101 173.382 100.968 173.446 100.904C173.574 100.584 173.542 100.424 173.35 100.424C173.158 100.424 173.062 100.392 173.062 100.328C173.126 99.816 173.222 99.464 173.35 99.272C173.478 99.08 173.574 98.76 173.638 98.312L173.926 96.68C173.926 96.744 173.958 97 174.022 97.448C174.086 97.832 174.246 98.024 174.502 98.024C174.822 98.024 174.918 97.96 174.79 97.832C174.662 97.704 174.566 97.544 174.502 97.352C174.438 97.032 174.502 96.776 174.694 96.584C174.758 96.52 174.886 96.648 175.078 96.968C175.27 97.224 175.366 97.352 175.366 97.352C175.43 97.224 175.462 97.064 175.462 96.872C175.462 96.68 175.398 96.552 175.27 96.488C175.014 96.296 174.726 96.168 174.406 96.104C174.15 95.976 174.022 95.848 174.022 95.72C174.022 95.528 174.054 95.336 174.118 95.144C174.118 95.08 174.15 95.016 174.214 94.952C174.278 94.888 174.31 94.824 174.31 94.76C174.31 94.632 174.246 94.568 174.118 94.568C174.054 94.568 174.022 94.536 174.022 94.472V93.512C174.022 93.32 174.022 93.128 174.022 92.936C174.022 92.68 173.958 92.424 173.83 92.168C173.638 91.72 173.35 91.336 172.966 91.016C172.582 90.696 172.102 90.536 171.526 90.536H171.43L171.238 90.728H171.046C170.598 91.048 170.086 91.368 169.51 91.688C168.998 91.944 168.55 92.136 168.166 92.264L167.974 92.36C167.91 92.424 167.814 92.456 167.686 92.456C167.43 92.456 167.238 92.328 167.11 92.072C167.046 91.816 167.142 91.656 167.398 91.592C167.91 91.272 168.454 91.016 169.03 90.824C169.606 90.632 170.118 90.344 170.566 89.96C170.694 89.64 171.014 89.384 171.526 89.192C171.654 89.064 171.75 89.032 171.814 89.096C171.878 89.16 171.942 89.192 172.006 89.192C172.326 89.192 172.518 89.096 172.582 88.904C172.71 88.648 172.806 88.584 172.87 88.712H173.83C175.238 88.712 176.326 89.288 177.094 90.44C177.862 91.528 178.214 93 178.15 94.856C178.15 94.92 178.054 95.016 177.862 95.144C177.734 95.208 177.67 95.304 177.67 95.432C177.67 95.496 177.734 95.528 177.862 95.528C178.054 95.464 178.15 95.496 178.15 95.624V96.008C178.15 96.584 178.118 96.904 178.054 96.968C177.926 98.376 177.606 99.848 177.094 101.384C176.646 102.856 176.166 104.296 175.654 105.704C175.462 105.704 175.334 105.8 175.27 105.992C175.206 106.184 175.11 106.28 174.982 106.28C174.79 106.28 174.598 106.216 174.406 106.088C174.278 105.896 174.214 105.896 174.214 106.088C174.214 106.344 174.342 106.536 174.598 106.664C174.854 106.728 175.014 106.792 175.078 106.856C175.142 106.92 175.27 106.952 175.462 106.952C175.654 106.952 175.846 106.888 176.038 106.76C176.23 106.632 176.422 106.504 176.614 106.376C176.934 106.12 177.35 105.768 177.862 105.32C178.438 104.808 178.95 104.36 179.398 103.976C179.846 103.528 180.07 103.304 180.07 103.304C179.942 103.176 180.038 103.048 180.358 102.92L180.838 102.344C180.902 102.024 181.094 101.672 181.414 101.288C181.734 100.904 182.022 100.68 182.278 100.616L182.47 100.232C182.534 100.232 182.598 100.264 182.662 100.328C182.726 100.328 182.79 100.296 182.854 100.232C182.918 100.232 182.918 100.168 182.854 100.04C182.854 99.912 182.886 99.848 182.95 99.848L183.43 99.176C183.558 98.792 183.686 98.568 183.814 98.504C183.75 98.312 183.814 98.184 184.006 98.12C184.134 98.12 184.262 98.152 184.39 98.216C184.582 98.216 184.678 98.088 184.678 97.832C184.678 97.704 184.71 97.544 184.774 97.352C184.838 97.096 184.998 97 185.254 97.064L185.35 96.872C185.35 96.808 185.478 96.712 185.734 96.584C185.99 96.392 186.15 96.264 186.214 96.2L186.694 95.528C186.886 95.208 187.078 95.048 187.27 95.048C187.462 94.984 187.59 94.952 187.654 94.952C187.718 94.952 187.75 95.016 187.75 95.144C187.75 95.592 187.526 96.04 187.078 96.488L186.31 97.352C186.246 97.416 186.182 97.448 186.118 97.448C186.054 97.448 185.99 97.512 185.926 97.64C185.862 97.704 185.798 97.8 185.734 97.928C185.67 98.056 185.606 98.184 185.542 98.312L184.774 99.176L179.59 105.32C179.014 105.96 178.63 106.376 178.438 106.568C178.31 106.76 178.118 107.048 177.862 107.432C177.798 107.496 177.702 107.496 177.574 107.432C177.446 107.368 177.318 107.4 177.19 107.528L177.094 108.104L176.614 108.584C176.55 108.648 176.582 108.68 176.71 108.68C176.902 108.68 176.966 108.712 176.902 108.776L175.558 111.08C174.854 112.296 174.086 112.904 173.254 112.904Z" fill="#06004E"/>
</svg>
