<svg width="30" height="23" viewBox="0 0 30 23" fill="none" xmlns="http://www.w3.org/2000/svg">
<path fill-rule="evenodd" clip-rule="evenodd" d="M10.758 13.251L15.003 16.1535L19.095 13.3305L28.2675 22.38C28.026 22.458 27.768 22.5 27.4995 22.5H2.5005C2.1705 22.5 1.8555 22.4355 1.566 22.32L10.758 13.251ZM30 5.814V19.9995C30 20.37 29.919 20.721 29.775 21.0375L20.784 12.1665L30 5.814ZM1.4154e-06 5.8935L9.063 12.0915L0.159001 20.8785C0.0535451 20.5975 -0.00031835 20.2997 1.4154e-06 19.9995V5.8935ZM27.4995 0C28.8795 0 30 1.119 30 2.5005V3.3795L14.997 13.722L1.4154e-06 3.465V2.5005C1.4154e-06 1.1205 1.119 0 2.5005 0H27.4995Z" fill="black"/>
</svg>
