<svg width="54" height="81" viewBox="0 0 54 81" fill="none" xmlns="http://www.w3.org/2000/svg">
<path d="M13.3924 80.0273C20.7549 80.0273 26.7302 74.0519 26.7302 66.6894V53.3516H13.3924C6.02987 53.3516 0.0545044 59.3269 0.0545044 66.6894C0.0545044 74.0519 6.02987 80.0273 13.3924 80.0273Z" fill="#0ACF83"/>
<path d="M0.0545044 40.0137C0.0545044 32.6511 6.02987 26.6758 13.3924 26.6758H26.7302V53.3515H13.3924C6.02987 53.3515 0.0545044 47.3762 0.0545044 40.0137Z" fill="#A259FF"/>
<path d="M0.0545044 13.3379C0.0545044 5.97537 6.02987 0 13.3924 0H26.7302V26.6757H13.3924C6.02987 26.6757 0.0545044 20.7004 0.0545044 13.3379Z" fill="#F24E1E"/>
<path d="M26.7303 0H40.0681C47.4306 0 53.406 5.97537 53.406 13.3379C53.406 20.7004 47.4306 26.6757 40.0681 26.6757H26.7303V0Z" fill="#FF7262"/>
<path d="M53.406 40.0137C53.406 47.3762 47.4306 53.3515 40.0681 53.3515C32.7056 53.3515 26.7303 47.3762 26.7303 40.0137C26.7303 32.6511 32.7056 26.6758 40.0681 26.6758C47.4306 26.6758 53.406 32.6511 53.406 40.0137Z" fill="#1ABCFE"/>
</svg>
