<svg width="83" height="80" viewBox="0 0 83 80" fill="none" xmlns="http://www.w3.org/2000/svg">
<path fill-rule="evenodd" clip-rule="evenodd" d="M41.0949 0C18.4472 0 0.0822754 18.3609 0.0822754 41.0126C0.0822754 59.1338 11.8336 74.5064 28.1292 79.9301C30.1782 80.3104 30.9307 79.0404 30.9307 77.9572C30.9307 76.9792 30.8927 73.7485 30.875 70.3215C19.4653 72.8024 17.0577 65.4825 17.0577 65.4825C15.1921 60.742 12.504 59.4815 12.504 59.4815C8.78221 56.936 12.7845 56.989 12.7845 56.989C16.9022 57.2777 19.0714 61.2154 19.0714 61.2154C22.7293 67.484 28.6658 65.672 31.0061 64.6247C31.3742 61.974 32.4371 60.1641 33.61 59.1399C24.5005 58.1042 14.9238 54.5869 14.9238 38.872C14.9238 34.3943 16.5266 30.7357 19.1502 27.8629C18.7236 26.8306 17.3198 22.6592 19.5468 17.01C19.5468 17.01 22.9901 15.9078 30.8275 21.214C34.0996 20.3046 37.6088 19.8475 41.0949 19.8319C44.579 19.8475 48.0902 20.3033 51.3684 21.2126C59.1964 15.9064 62.6356 17.0087 62.6356 17.0087C64.868 22.6572 63.4641 26.8292 63.0383 27.8615C65.668 30.7343 67.2593 34.3929 67.2593 38.8706C67.2593 54.6228 57.6649 58.0906 48.5323 59.1066C50.004 60.3793 51.3148 62.8759 51.3148 66.7016C51.3148 72.1891 51.2673 76.6056 51.2673 77.9565C51.2673 79.0479 52.0062 80.3267 54.0844 79.924C70.3704 74.4948 82.1082 59.127 82.1082 41.0126C82.1076 18.3622 63.7446 0 41.0949 0Z" fill="white"/>
<path d="M15.6159 58.8847C15.5255 59.0884 15.205 59.1496 14.913 59.0103C14.6141 58.8772 14.4477 58.5994 14.5442 58.395C14.6325 58.1845 14.9537 58.1268 15.2505 58.2673C15.5493 58.4011 15.7191 58.6816 15.6152 58.8854L15.6159 58.8847ZM17.2771 60.7381C17.0822 60.9194 16.6998 60.8352 16.4404 60.5479C16.1714 60.2627 16.1212 59.8803 16.3202 59.6963C16.5225 59.5156 16.8934 59.6012 17.1623 59.8864C17.4299 60.1758 17.4829 60.5547 17.2778 60.7388L17.2771 60.7381ZM18.8948 63.0995C18.6435 63.2747 18.232 63.111 17.978 62.7463C17.7267 62.381 17.7267 61.9429 17.9848 61.7684C18.2381 61.5931 18.6435 61.7514 18.9016 62.1127C19.1515 62.4828 19.1515 62.9216 18.8948 63.0995ZM21.1095 65.3821C20.8854 65.63 20.4059 65.5635 20.0555 65.2259C19.6976 64.8952 19.5977 64.4245 19.8225 64.1773C20.0507 63.9287 20.5323 63.998 20.8847 64.3335C21.2427 64.6636 21.3506 65.1349 21.1109 65.3815L21.1095 65.3821ZM24.1657 66.7072C24.0659 67.0284 23.6054 67.1744 23.1402 67.0372C22.6763 66.8966 22.3728 66.5211 22.4678 66.1964C22.5629 65.8725 23.0268 65.721 23.4947 65.867C23.9586 66.007 24.2622 66.3805 24.1657 66.7072ZM27.5228 66.9523C27.5343 67.2905 27.1404 67.5704 26.6535 67.5772C26.1624 67.5887 25.7651 67.3143 25.7604 66.9815C25.7604 66.6399 26.1461 66.3635 26.6365 66.354C27.1234 66.3452 27.5234 66.6168 27.5234 66.9517L27.5228 66.9523ZM30.6455 66.4212C30.7039 66.7506 30.365 67.0895 29.8808 67.1798C29.4054 67.2681 28.9639 67.063 28.9028 66.7364C28.8444 66.3981 29.1894 66.0592 29.6648 65.9716C30.1497 65.8881 30.5844 66.0864 30.6455 66.4212Z" fill="white"/>
</svg>
