<svg width="71" height="80" viewBox="0 0 71 80" fill="none" xmlns="http://www.w3.org/2000/svg">
<path d="M6.41999 72.0028L0 0H70.5428L64.1142 71.9913L35.2285 79.9999L6.41999 72.0028Z" fill="#E44F26"/>
<path d="M35.2713 73.8798L58.6141 67.4084L64.1055 5.88843H35.2713V73.8798Z" fill="#F1662A"/>
<path d="M35.2713 32.5908H23.5856L22.7799 23.548H35.2713V14.7166H13.1285L13.3399 17.088L15.5085 41.4222H35.2713V32.5908ZM35.2713 55.5251L35.2313 55.5365L25.397 52.8822L24.7685 45.8394H15.9028L17.1399 59.7022L35.2313 64.7251L35.2713 64.7136V55.5251Z" fill="#EBEBEB"/>
<path d="M35.2399 32.5908V41.4222H46.1142L45.0913 52.8765L35.2399 55.5336V64.7222L53.3456 59.7022L53.477 58.2108L55.5513 34.9622L55.7685 32.5908H35.2399ZM35.2399 14.7166V23.548H56.5713L56.7485 21.5651L57.1513 17.088L57.3627 14.7166H35.2399Z" fill="white"/>
</svg>
