<svg width="23" height="30" viewBox="0 0 23 30" fill="none" xmlns="http://www.w3.org/2000/svg">
<path d="M11.087 0C4.92561 0 0 4.99805 0 11.25C0 13.4121 0.63519 15.082 1.73811 16.7754L9.92052 29.373C10.1688 29.7539 10.5961 30 11.087 30C11.5778 30 12.0109 29.748 12.2534 29.373L20.4358 16.7754C21.5387 15.082 22.1739 13.4121 22.1739 11.25C22.1739 4.99805 17.2483 0 11.087 0ZM11.087 17.4961C7.6858 17.4961 4.92561 14.6953 4.92561 11.2383C4.92561 7.78125 7.6858 4.98047 11.087 4.98047C14.4881 4.98047 17.2483 7.78125 17.2483 11.2383C17.2483 14.6953 14.4881 17.4961 11.087 17.4961ZM11.087 7.5C9.0428 7.5 7.3913 9.17578 7.3913 11.25C7.3913 13.3242 9.0428 15 11.087 15C13.1311 15 14.7826 13.3242 14.7826 11.25C14.7826 9.17578 13.1311 7.5 11.087 7.5Z" fill="black"/>
</svg>
