<svg width="159" height="71" viewBox="0 0 159 71" fill="none" xmlns="http://www.w3.org/2000/svg">
<path d="M47.0938 29.7812V41.9219C47.0938 46.9219 46.5312 51.25 45.4062 54.9062C44.3125 58.5625 42.7188 61.5781 40.625 63.9531C38.5625 66.3281 36.0938 68.0938 33.2188 69.25C30.375 70.375 27.2188 70.9375 23.75 70.9375C20.9688 70.9375 18.375 70.5781 15.9688 69.8594C13.5625 69.1406 11.3906 68.0312 9.45312 66.5312C7.54688 65 5.90625 63.0938 4.53125 60.8125C3.15625 58.5312 2.09375 55.8125 1.34375 52.6562C0.625 49.5 0.265625 45.9219 0.265625 41.9219V29.7812C0.265625 24.7188 0.8125 20.375 1.90625 16.75C3.03125 13.125 4.64062 10.125 6.73438 7.75C8.82812 5.375 11.2969 3.625 14.1406 2.5C17.0156 1.375 20.1875 0.8125 23.6562 0.8125C26.4375 0.8125 29.0156 1.17188 31.3906 1.89062C33.7969 2.60937 35.9688 3.71875 37.9062 5.21875C39.8438 6.71875 41.4844 8.60937 42.8281 10.8906C44.2031 13.1719 45.25 15.8906 45.9688 19.0469C46.7188 22.1719 47.0938 25.75 47.0938 29.7812ZM32.4688 43.75V27.8594C32.4688 25.5156 32.3281 23.4844 32.0469 21.7656C31.7969 20.0156 31.4219 18.5312 30.9219 17.3125C30.4531 16.0938 29.8594 15.1094 29.1406 14.3594C28.4219 13.6094 27.5938 13.0625 26.6562 12.7188C25.75 12.3438 24.75 12.1562 23.6562 12.1562C22.2812 12.1562 21.0469 12.4375 19.9531 13C18.8594 13.5625 17.9375 14.4531 17.1875 15.6719C16.4375 16.8594 15.8594 18.4688 15.4531 20.5C15.0781 22.5 14.8906 24.9531 14.8906 27.8594V43.75C14.8906 46.0938 15.0156 48.1406 15.2656 49.8906C15.5469 51.6406 15.9219 53.1406 16.3906 54.3906C16.8906 55.6094 17.5 56.6094 18.2188 57.3906C18.9375 58.1406 19.7656 58.6875 20.7031 59.0312C21.6406 59.375 22.6562 59.5469 23.75 59.5469C25.125 59.5469 26.3438 59.2812 27.4062 58.75C28.4688 58.1875 29.375 57.2969 30.125 56.0781C30.9062 54.8281 31.4844 53.1875 31.8594 51.1562C32.2656 49.125 32.4688 46.6562 32.4688 43.75ZM103.016 58.6094V70H55.8594V60.3438L77.8906 37C79.9531 34.625 81.5938 32.5312 82.8125 30.7188C84.0625 28.9062 84.9688 27.2656 85.5312 25.7969C86.0938 24.2969 86.375 22.9219 86.375 21.6719C86.375 19.6406 86.0469 17.9219 85.3906 16.5156C84.7656 15.1094 83.8438 14.0312 82.625 13.2812C81.4062 12.5312 79.9219 12.1562 78.1719 12.1562C76.2969 12.1562 74.6875 12.6406 73.3438 13.6094C72 14.5781 70.9688 15.9219 70.25 17.6406C69.5312 19.3281 69.1719 21.25 69.1719 23.4062H54.4531C54.4531 19.25 55.4531 15.4688 57.4531 12.0625C59.4531 8.625 62.25 5.89062 65.8438 3.85938C69.4375 1.79688 73.6406 0.765625 78.4531 0.765625C83.3906 0.765625 87.5312 1.54688 90.875 3.10938C94.2188 4.67187 96.75 6.90625 98.4688 9.8125C100.188 12.7188 101.047 16.2188 101.047 20.3125C101.047 22.625 100.672 24.8594 99.9219 27.0156C99.2031 29.1719 98.1562 31.3125 96.7812 33.4375C95.4062 35.5625 93.75 37.7344 91.8125 39.9531C89.875 42.1406 87.6875 44.4531 85.25 46.8906L74.9375 58.6094H103.016ZM158.724 31.6094V44.3125H111.942V31.6094H158.724ZM142.317 13.4688V63.1562H128.536V13.4688H142.317Z" fill="#00FFF0"/>
</svg>
