<svg width="160" height="71" viewBox="0 0 160 71" fill="none" xmlns="http://www.w3.org/2000/svg">
<path d="M47.0938 29.7812V41.9219C47.0938 46.9219 46.5312 51.25 45.4062 54.9062C44.3125 58.5625 42.7188 61.5781 40.625 63.9531C38.5625 66.3281 36.0938 68.0938 33.2188 69.25C30.375 70.375 27.2188 70.9375 23.75 70.9375C20.9688 70.9375 18.375 70.5781 15.9688 69.8594C13.5625 69.1406 11.3906 68.0312 9.45312 66.5312C7.54688 65 5.90625 63.0938 4.53125 60.8125C3.15625 58.5312 2.09375 55.8125 1.34375 52.6562C0.625 49.5 0.265625 45.9219 0.265625 41.9219V29.7812C0.265625 24.7188 0.8125 20.375 1.90625 16.75C3.03125 13.125 4.64062 10.125 6.73438 7.75C8.82812 5.375 11.2969 3.625 14.1406 2.5C17.0156 1.375 20.1875 0.8125 23.6562 0.8125C26.4375 0.8125 29.0156 1.17188 31.3906 1.89062C33.7969 2.60937 35.9688 3.71875 37.9062 5.21875C39.8438 6.71875 41.4844 8.60937 42.8281 10.8906C44.2031 13.1719 45.25 15.8906 45.9688 19.0469C46.7188 22.1719 47.0938 25.75 47.0938 29.7812ZM32.4688 43.75V27.8594C32.4688 25.5156 32.3281 23.4844 32.0469 21.7656C31.7969 20.0156 31.4219 18.5312 30.9219 17.3125C30.4531 16.0938 29.8594 15.1094 29.1406 14.3594C28.4219 13.6094 27.5938 13.0625 26.6562 12.7188C25.75 12.3438 24.75 12.1562 23.6562 12.1562C22.2812 12.1562 21.0469 12.4375 19.9531 13C18.8594 13.5625 17.9375 14.4531 17.1875 15.6719C16.4375 16.8594 15.8594 18.4688 15.4531 20.5C15.0781 22.5 14.8906 24.9531 14.8906 27.8594V43.75C14.8906 46.0938 15.0156 48.1406 15.2656 49.8906C15.5469 51.6406 15.9219 53.1406 16.3906 54.3906C16.8906 55.6094 17.5 56.6094 18.2188 57.3906C18.9375 58.1406 19.7656 58.6875 20.7031 59.0312C21.6406 59.375 22.6562 59.5469 23.75 59.5469C25.125 59.5469 26.3438 59.2812 27.4062 58.75C28.4688 58.1875 29.375 57.2969 30.125 56.0781C30.9062 54.8281 31.4844 53.1875 31.8594 51.1562C32.2656 49.125 32.4688 46.6562 32.4688 43.75ZM104.047 43.9375V55.2812H54.9219L54.125 46.375L82.0625 1.75H93.6406L81.0781 22.5625L68.375 43.9375H104.047ZM96.7344 1.75V70H82.1094V1.75H96.7344ZM159.684 31.6094V44.3125H112.902V31.6094H159.684ZM143.277 13.4688V63.1562H129.496V13.4688H143.277Z" fill="#00FFF0"/>
</svg>
