<svg width="81" height="81" viewBox="0 0 81 81" fill="none" xmlns="http://www.w3.org/2000/svg">
<path d="M61.2708 0H18.7564C8.39752 0 0 8.39752 0 18.7564V61.2708C0 71.6297 8.39752 80.0272 18.7564 80.0272H61.2708C71.6297 80.0272 80.0272 71.6297 80.0272 61.2708V18.7564C80.0272 8.39752 71.6297 0 61.2708 0Z" fill="#001E36"/>
<path d="M18.0061 55.6565V21.3448C18.0061 21.1113 18.1062 20.9781 18.3397 20.9781C18.9064 20.9781 19.44 20.9781 20.2069 20.9447C21.0071 20.9112 21.8409 20.9112 22.7412 20.8781C23.6415 20.8447 24.6084 20.8447 25.6422 20.8112C26.6756 20.7781 27.676 20.7781 28.6763 20.7781C31.4107 20.7781 33.678 21.1113 35.5455 21.8116C37.2194 22.38 38.7457 23.3141 40.0136 24.5459C41.0881 25.6239 41.9182 26.9203 42.4479 28.3472C42.948 29.7477 43.2147 31.1816 43.2147 32.6821C43.2147 35.5497 42.5479 37.917 41.214 39.7845C39.8801 41.6517 38.0129 43.0522 35.8456 43.8525C33.578 44.6862 31.0771 44.9863 28.3431 44.9863C27.5428 44.9863 27.0092 44.9863 26.6756 44.9529C26.3424 44.9194 25.8754 44.9194 25.242 44.9194V55.6231C25.2752 55.8566 25.1085 56.0566 24.875 56.0901H18.4063C18.1396 56.0901 18.0061 55.9566 18.0061 55.6565ZM25.2752 27.4135V38.6173C25.7422 38.6507 26.1755 38.6842 26.5756 38.6842H28.3431C29.6435 38.6842 30.944 38.4841 32.1775 38.084C33.2447 37.7839 34.1782 37.1502 34.9119 36.3165C35.6121 35.4831 35.9457 34.3493 35.9457 32.8822C35.977 31.8401 35.7109 30.8107 35.1785 29.9143C34.6118 29.0475 33.8115 28.3807 32.8446 28.0137C31.6107 27.5135 30.2769 27.3134 28.9098 27.3469C28.043 27.3469 27.2758 27.3469 26.6425 27.3803C25.9754 27.3469 25.5087 27.3803 25.2752 27.4135ZM64.0218 36.5835C63.0214 36.0498 61.9545 35.6831 60.8207 35.4496C59.5868 35.183 58.3533 35.016 57.086 35.016C56.4192 34.9829 55.7189 35.0829 55.0853 35.2496C54.652 35.3496 54.285 35.5831 54.0518 35.9163C53.8849 36.1833 53.7849 36.5166 53.7849 36.8167C53.7849 37.1168 53.9183 37.4169 54.1184 37.6838C54.4185 38.0505 54.8186 38.3506 55.2522 38.5841C56.0253 38.9845 56.8151 39.3517 57.6196 39.6845C59.4202 40.2847 61.1542 41.1181 62.7548 42.1185C63.8552 42.8187 64.7555 43.7525 65.3888 44.8863C65.9224 45.9532 66.1891 47.1202 66.1559 48.3206C66.1891 49.888 65.7224 51.4551 64.8555 52.7555C63.9254 54.0866 62.6276 55.1178 61.1208 55.7231C59.4868 56.4233 57.4861 56.7903 55.0853 56.7903C53.5516 56.7903 52.0511 56.6568 50.5506 56.3567C49.3746 56.1536 48.2308 55.7948 47.1495 55.2898C46.916 55.1563 46.7493 54.9228 46.7825 54.6562V48.8542C46.7825 48.7542 46.8159 48.6207 46.916 48.5541C47.016 48.4875 47.116 48.5206 47.2161 48.5875C48.5165 49.3544 49.8835 49.888 51.3509 50.2212C52.6179 50.5548 53.9518 50.7214 55.2854 50.7214C56.5527 50.7214 57.453 50.5548 58.0532 50.2547C58.5865 50.0211 58.9535 49.4544 58.9535 48.8542C58.9535 48.3875 58.6865 47.9539 58.1532 47.5203C57.6196 47.087 56.5192 46.5869 54.8852 45.9532C53.2091 45.3626 51.6174 44.5555 50.1505 43.5524C49.1056 42.8076 48.2399 41.8394 47.6162 40.718C47.0826 39.6511 46.8159 38.4841 46.8494 37.3168C46.8494 35.8832 47.2495 34.5159 47.9829 33.2823C48.8166 31.9484 50.0505 30.8815 51.4841 30.2144C53.0515 29.4141 55.0187 29.0475 57.3861 29.0475C58.7534 29.0475 60.1539 29.1475 61.5209 29.3476C62.5213 29.481 63.4882 29.7477 64.3885 30.1144C64.5219 30.1478 64.6554 30.2813 64.722 30.4145C64.7555 30.548 64.7886 30.6814 64.7886 30.8146V36.2499C64.7886 36.3834 64.722 36.5166 64.622 36.5835C64.3219 36.65 64.1553 36.65 64.0218 36.5835Z" fill="#31A8FF"/>
</svg>
