<svg width="92" height="56" viewBox="0 0 92 56" fill="none" xmlns="http://www.w3.org/2000/svg">
<path d="M45.5823 0C33.4487 0 25.868 6.22012 22.8323 18.6655C27.3809 12.4446 32.6908 10.1119 38.7559 11.6673C42.2188 12.5525 44.6936 15.1281 47.4343 17.9822C51.8947 22.625 57.0575 28 68.3323 28C80.4651 28 88.0466 21.7792 91.0823 9.3309C86.533 15.5554 81.2237 17.8881 75.158 16.3327C71.6957 15.4467 69.2238 12.8719 66.4796 10.0178C62.022 5.37497 56.8606 0 45.5823 0ZM22.8323 28C10.6994 28 3.11798 34.2208 0.0822754 46.6691C4.63085 40.4446 9.94014 38.1119 16.0059 39.6673C19.4688 40.5533 21.9436 43.1281 24.6843 45.9822C29.1447 50.625 34.3075 56 45.5823 56C57.7151 56 65.2966 49.7799 68.3323 37.3345C63.783 43.5554 58.4737 45.8881 52.408 44.3327C48.9457 43.4475 46.4738 40.8719 43.7296 38.0178C39.272 33.375 34.1106 28 22.8323 28Z" fill="#38BDF8"/>
</svg>
